<svg width="29" height="28" viewBox="0 0 29 28" fill="none" xmlns="http://www.w3.org/2000/svg">
<path d="M8.89319 2.8C8.78854 2.79942 8.6826 2.85778 8.64527 2.97865C8.34287 3.94931 7.7361 5.48282 6.6273 6.82682C6.46677 7.02096 6.66172 7.30698 6.90439 7.23698L8.15855 6.87786C8.02602 8.42346 6.31954 10.5398 5.25647 11.7195C5.0082 11.9949 5.3121 12.3808 5.69944 12.2846L7.84319 11.7542C7.55199 13.5574 5.59199 15.9182 4.34319 17.2594C4.03985 17.5851 4.41233 18.0441 4.88459 17.9302L8.12939 17.1482L7.96715 24.2667H9.83381L9.66975 17.15L12.9164 17.9302C13.3896 18.0431 13.7602 17.5851 13.4578 17.2594C12.209 15.9182 10.249 13.5574 9.95777 11.7542L12.1015 12.2846C12.4889 12.3808 12.7928 11.9949 12.5445 11.7195C11.4814 10.5398 9.77587 8.42346 9.64241 6.87786L10.8966 7.23698C11.1392 7.30605 11.3389 7.01816 11.1737 6.82682C10.0266 5.50149 9.42679 3.95767 9.13746 2.98047C9.10153 2.86007 8.99784 2.80058 8.89319 2.8ZM22.9005 3.73333C22.4054 3.73333 21.9306 3.93 21.5805 4.28007C21.2305 4.63013 21.0338 5.10493 21.0338 5.6C21.0338 6.09507 21.2305 6.56986 21.5805 6.91993C21.9306 7.27 22.4054 7.46667 22.9005 7.46667C23.3956 7.46667 23.8703 7.27 24.2204 6.91993C24.5705 6.56986 24.7671 6.09507 24.7671 5.6C24.7671 5.10493 24.5705 4.63013 24.2204 4.28007C23.8703 3.93 23.3956 3.73333 22.9005 3.73333ZM16.3033 16.8C15.9468 16.8 15.6216 17.0039 15.4648 17.325L12.694 23.0052C12.5866 23.2927 12.6261 23.6136 12.7997 23.8656C12.9306 24.0539 13.125 24.1853 13.3429 24.2393C13.4156 24.2573 13.4906 24.2667 13.5671 24.2667H18.9028C19.0099 24.2667 19.114 24.2476 19.2109 24.2138C19.5015 24.1124 19.7311 23.8709 19.8088 23.5594L20.7622 19.7495C20.8359 19.4555 21.2516 19.4501 21.3328 19.7422L22.5906 24.2667H24.7671C25.0733 24.2667 25.3601 24.1158 25.5346 23.8638C25.7091 23.6127 25.7495 23.2927 25.6421 23.0052L22.8713 17.3232C22.7145 17.003 22.3875 16.8 22.0309 16.8H16.3033Z" fill="#48847A"/>
</svg>
