<svg width="29" height="28" viewBox="0 0 29 28" fill="none" xmlns="http://www.w3.org/2000/svg">
<path d="M13.3557 2.80546C12.9917 2.75703 12.6221 3.01128 12.5864 3.42708C12.0936 9.15774 7.96712 9.68893 7.96712 14.9333C7.96712 17.6139 10.1819 20.5333 14.5005 20.5333C18.819 20.5333 21.0338 17.0819 21.0338 14C21.0338 10.1612 19.7617 8.08835 18.932 6.87968C18.6669 6.49328 18.0739 6.52539 17.8583 6.94166C17.6165 7.40833 17.2669 7.87499 16.8338 7.87499C16.075 7.87499 15.9205 4.78321 13.7057 2.96041C13.5983 2.87198 13.477 2.82161 13.3557 2.80546ZM15.4338 12.1333C15.4338 12.1333 16.3671 14 16.3671 16.8C16.3671 17.8687 15.5691 18.6667 14.5005 18.6667C13.4318 18.6667 12.6338 17.7669 12.6338 16.8C12.6338 15.4121 13.5671 14 13.5671 14C13.5671 14 13.9451 14.9333 14.5005 14.9333C15.3629 14.9333 15.4338 12.1333 15.4338 12.1333ZM7.18691 20.5461C6.67825 20.4546 6.19722 20.8049 6.11322 21.3135C6.02828 21.8213 6.372 22.3032 6.88066 22.3872L9.29056 22.7883L5.94733 23.3461C5.43866 23.431 5.09495 23.9102 5.17988 24.418C5.25548 24.8753 5.65063 25.2 6.09863 25.2C6.14997 25.2 6.20131 25.1966 6.25358 25.1872L14.9671 23.7344L23.6807 25.1872C23.7329 25.1966 23.7843 25.2 23.8356 25.2C24.2836 25.2 24.6788 24.8762 24.7544 24.4198C24.8393 23.9121 24.4956 23.4301 23.9869 23.3461L20.6437 22.7901L23.0536 22.3872C23.5622 22.3023 23.906 21.8231 23.821 21.3154C23.7361 20.8067 23.256 20.4564 22.7473 20.5479L19.0268 21.1677C17.7948 21.9321 16.2841 22.4 14.5005 22.4C12.3874 22.4 10.6562 21.819 9.32155 20.9016L7.18691 20.5461Z" fill="#48847A"/>
</svg>
