<svg width="29" height="28" viewBox="0 0 29 28" fill="none" xmlns="http://www.w3.org/2000/svg">
<path d="M14.5091 1.86667C14.3142 1.86488 14.1236 1.92416 13.9641 2.0362L2.7641 9.87474C2.56128 10.0169 2.42324 10.2338 2.38033 10.4777C2.33743 10.7216 2.39318 10.9726 2.53532 11.1754C2.67746 11.3782 2.89434 11.5162 3.13826 11.5592C3.38218 11.6021 3.63316 11.5463 3.83597 11.4042L4.23337 11.1253V21.4667C4.23337 22.4869 5.07984 23.3333 6.10003 23.3333H7.9667V21.4667H6.10003V9.82005L14.5 3.93932L22.9 9.82005V21.4667H21.0334V23.3333H22.9C23.9202 23.3333 24.7667 22.4869 24.7667 21.4667V11.1253L25.1641 11.4042C25.2645 11.4745 25.3778 11.5245 25.4975 11.5511C25.6172 11.5776 25.741 11.5804 25.8618 11.5592C25.9826 11.5379 26.098 11.4931 26.2014 11.4272C26.3049 11.3614 26.3944 11.2758 26.4647 11.1754C26.5351 11.075 26.585 10.9617 26.6116 10.842C26.6382 10.7222 26.641 10.5985 26.6197 10.4777C26.5985 10.3569 26.5537 10.2415 26.4878 10.138C26.422 10.0346 26.3364 9.94512 26.236 9.87474L15.036 2.0362C14.8815 1.92773 14.6979 1.86862 14.5091 1.86667ZM10.7667 12.1333C10.2515 12.1333 9.83337 12.5515 9.83337 13.0667V25.2C9.83337 25.4475 9.9317 25.6849 10.1067 25.86C10.2818 26.035 10.5192 26.1333 10.7667 26.1333C10.9798 26.1329 11.1862 26.0595 11.3519 25.9255L11.3664 25.9128L14.5 23.3333L17.6099 25.8945C17.6224 25.9052 17.6352 25.9155 17.6482 25.9255C17.8138 26.0595 18.0203 26.1329 18.2334 26.1333C18.4809 26.1333 18.7183 26.035 18.8933 25.86C19.0684 25.6849 19.1667 25.4475 19.1667 25.2V13.0667C19.1667 12.5515 18.7486 12.1333 18.2334 12.1333H10.7667Z" fill="#48847A"/>
</svg>
