<svg width="28" height="28" viewBox="0 0 28 28" fill="none" xmlns="http://www.w3.org/2000/svg">
<path d="M14.9187 5.58724C14.6715 5.59111 14.4359 5.6929 14.2637 5.87027C14.0915 6.04764 13.9966 6.28611 14 6.53334H8.54766C5.82752 6.53334 3.38495 8.22421 2.42995 10.7716L1.68984 12.7477C0.673629 13.4148 0 14.5603 0 15.8667V18.6667C0 19.1819 0.418133 19.6 0.933333 19.6H3.73333C3.73333 21.1353 4.99799 22.4 6.53333 22.4C8.06868 22.4 9.33333 21.1353 9.33333 19.6H19.6C19.6 21.1353 20.8647 22.4 22.4 22.4C23.9353 22.4 25.2 21.1353 25.2 19.6H27.0667C27.5819 19.6 28 19.1819 28 18.6667L27.701 15.6807C27.6094 14.7621 26.8596 14.0601 25.9474 14.0091L25.9365 13.9508C25.7759 13.1481 25.1106 12.5427 24.2958 12.4596L21.0966 12.1333H21.0693L19.1534 8.84844C18.4449 7.63399 17.2303 6.82007 15.8667 6.59896V6.53334C15.8684 6.40847 15.845 6.28452 15.798 6.16884C15.7509 6.05317 15.6811 5.94811 15.5927 5.85989C15.5043 5.77167 15.3991 5.70208 15.2834 5.65525C15.1676 5.60842 15.0436 5.58529 14.9187 5.58724ZM8.54766 8.4H14.7766C14.8774 8.41666 14.9802 8.41666 15.081 8.4H15.1229C16.1205 8.4 17.0391 8.92713 17.5419 9.78906L18.9091 12.1333H14.9333V10.2667C14.935 10.1418 14.9117 10.0179 14.8646 9.90218C14.8176 9.7865 14.7478 9.68144 14.6594 9.59322C14.571 9.505 14.4658 9.43541 14.35 9.38858C14.2343 9.34175 14.1103 9.31862 13.9854 9.32057C13.7382 9.32444 13.5026 9.42623 13.3304 9.6036C13.1581 9.78098 13.0633 10.0194 13.0667 10.2667V12.1333H9.33333V10.2667C9.33504 10.1418 9.31168 10.0179 9.26462 9.90218C9.21757 9.7865 9.14778 9.68144 9.05939 9.59322C8.971 9.505 8.86581 9.43541 8.75004 9.38858C8.63427 9.34175 8.51028 9.31862 8.38542 9.32057C8.1382 9.32444 7.90262 9.42623 7.73037 9.6036C7.55812 9.78098 7.46328 10.0194 7.46667 10.2667V12.1333H3.9138L4.17812 11.4279C4.86205 9.60354 6.59926 8.4 8.54766 8.4ZM6.53333 18.6667C7.05985 18.6667 7.46667 19.0735 7.46667 19.6C7.46667 20.1265 7.05985 20.5333 6.53333 20.5333C6.00681 20.5333 5.6 20.1265 5.6 19.6C5.6 19.0735 6.00681 18.6667 6.53333 18.6667ZM22.4 18.6667C22.9265 18.6667 23.3333 19.0735 23.3333 19.6C23.3333 20.1265 22.9265 20.5333 22.4 20.5333C21.8735 20.5333 21.4667 20.1265 21.4667 19.6C21.4667 19.0735 21.8735 18.6667 22.4 18.6667Z" fill="#48847A"/>
</svg>
