<svg width="29" height="28" viewBox="0 0 29 28" fill="none" xmlns="http://www.w3.org/2000/svg">
<path d="M10.812 3.73334C10.5316 3.74302 10.2581 3.90955 10.1521 4.22735L8.89981 7.98256L6.86361 7.30443C6.45481 7.16817 6.01907 7.4149 5.9248 7.8349L3.75553 17.5565C4.64873 17.0712 5.76007 16.8 7.03314 16.8C8.93527 16.8 10.0663 17.5626 10.8923 18.1198C11.5036 18.5323 11.7344 18.6667 12.1245 18.6667C12.5819 18.6667 12.967 18.5228 13.5008 18.3221C14.1999 18.0608 15.0707 17.7333 16.2243 17.7333C17.5086 17.7333 18.3013 18.1743 18.8529 18.6102L15.8925 9.67969C15.7413 9.22329 15.0997 9.2152 14.9355 9.66693L14.3868 11.1745L11.5066 4.18178C11.3792 3.87191 11.0925 3.72366 10.812 3.73334ZM23.8331 3.73334C23.3381 3.73334 22.8633 3.93001 22.5132 4.28007C22.1631 4.63014 21.9665 5.10494 21.9665 5.60001C21.9665 6.09508 22.1631 6.56987 22.5132 6.91994C22.8633 7.27001 23.3381 7.46667 23.8331 7.46667C24.3282 7.46667 24.803 7.27001 25.1531 6.91994C25.5031 6.56987 25.6998 6.09508 25.6998 5.60001C25.6998 5.10494 25.5031 4.63014 25.1531 4.28007C24.803 3.93001 24.3282 3.73334 23.8331 3.73334ZM22.8998 11.076C22.6946 11.076 22.4893 11.1748 22.3693 11.375L20.6303 14.2753C20.4557 14.5655 20.6643 14.9333 21.0022 14.9333H21.941L20.1745 17.8774C19.9664 18.2246 20.2161 18.6667 20.6212 18.6667H21.9665V19.6529C22.6254 19.721 23.2526 19.8579 23.8331 20.0557V18.6667H25.1785C25.5835 18.6667 25.8332 18.2246 25.6251 17.8774L23.8587 14.9333H24.7975C25.1353 14.9333 25.3448 14.5655 25.1712 14.2753L23.4303 11.375C23.3099 11.1748 23.105 11.076 22.8998 11.076ZM7.03314 18.6667C4.90514 18.6667 3.2998 19.6252 3.2998 21.4266V24.2484L25.6998 24.2667C25.6998 22.9777 23.8331 21.4667 21.0331 21.4667C17.7665 21.4667 18.3906 19.6 16.2243 19.6C14.6003 19.6 13.7233 20.5333 12.1245 20.5333C10.0357 20.5333 9.57181 18.6667 7.03314 18.6667Z" fill="#48847A"/>
</svg>
