<svg width="28" height="28" viewBox="0 0 28 28" fill="none" xmlns="http://www.w3.org/2000/svg">
<path d="M14.467 2.8C13.8482 2.8 13.2547 3.04584 12.8171 3.48342C12.3795 3.92101 12.1337 4.5145 12.1337 5.13334C12.1337 5.75217 12.3795 6.34567 12.8171 6.78325C13.2547 7.22084 13.8482 7.46667 14.467 7.46667C15.0858 7.46667 15.6793 7.22084 16.1169 6.78325C16.5545 6.34567 16.8003 5.75217 16.8003 5.13334C16.8003 4.5145 16.5545 3.92101 16.1169 3.48342C15.6793 3.04584 15.0858 2.8 14.467 2.8ZM7.93366 7.46667C6.82299 7.46667 5.8975 8.24438 5.6623 9.28412L4.73991 12.9828C4.69698 13.1601 4.66699 13.342 4.66699 13.5333C4.66699 14.8223 5.71139 15.8667 7.00033 15.8667C7.17486 15.8667 7.34194 15.8411 7.50527 15.8047C7.49127 15.6694 7.46699 15.5372 7.46699 15.4C7.46699 15.1228 7.49578 14.8432 7.55085 14.5669L8.96543 7.7237C8.65463 7.56503 8.30793 7.46667 7.93366 7.46667ZM21.9264 8.39271C21.8651 8.39367 21.8046 8.40669 21.7483 8.43102C21.6921 8.45536 21.6412 8.49054 21.5985 8.53455C21.5559 8.57856 21.5223 8.63054 21.4997 8.68753C21.4772 8.74451 21.466 8.80539 21.467 8.86667V9.79818L19.0589 11.9346L16.8149 10.5346C16.8084 10.5813 16.8069 10.6265 16.7985 10.6732L16.3501 13.156C17.6465 13.5956 18.9111 14 19.1902 14C19.4132 14 19.6354 13.9198 19.81 13.7648L21.467 12.2938V24.7333C21.4661 24.7952 21.4775 24.8566 21.5006 24.914C21.5237 24.9713 21.5579 25.0236 21.6013 25.0676C21.6447 25.1116 21.6965 25.1466 21.7535 25.1705C21.8106 25.1944 21.8718 25.2066 21.9337 25.2066C21.9955 25.2066 22.0567 25.1944 22.1138 25.1705C22.1708 25.1466 22.2226 25.1116 22.266 25.0676C22.3094 25.0236 22.3437 24.9713 22.3667 24.914C22.3898 24.8566 22.4012 24.7952 22.4003 24.7333V11.4661L22.7266 11.1763C23.1121 10.8338 23.1466 10.2438 22.805 9.85834C22.6923 9.73222 22.5496 9.6588 22.4003 9.6086V8.86667C22.4013 8.80416 22.3897 8.74209 22.3662 8.68414C22.3428 8.6262 22.3079 8.57356 22.2637 8.52935C22.2195 8.48514 22.1668 8.45027 22.1089 8.4268C22.0509 8.40332 21.9889 8.39173 21.9264 8.39271ZM12.5985 8.4C11.4528 8.4 10.5055 9.2284 10.3089 10.3177L10.3053 10.3214L9.38288 14.9224C9.38236 14.9249 9.38156 14.9272 9.38105 14.9297V14.9333C9.35044 15.0841 9.33366 15.2402 9.33366 15.4C9.33366 16.1196 9.66712 16.7547 10.1795 17.1828L10.1868 17.2047L13.8199 20.0667L14.8571 23.9768L14.9446 24.4161C14.9801 24.6351 15.0925 24.8342 15.2615 24.9779C15.4305 25.1215 15.6452 25.2003 15.867 25.2C16.1145 25.2 16.3519 25.1017 16.527 24.9266C16.702 24.7516 16.8003 24.5142 16.8003 24.2667C16.8002 24.2055 16.7941 24.1444 16.7821 24.0844L15.8488 19.4177C15.8237 19.2914 15.7728 19.1716 15.6993 19.0659L13.9529 15.8703C13.9546 15.8621 13.9532 15.853 13.9548 15.8448L14.8717 11.2583L14.8699 11.2565C14.9086 11.0878 14.9337 10.9138 14.9337 10.7333C14.9337 9.44595 13.8884 8.401 12.5985 8.4ZM9.29355 18.4096L8.81413 19.9938L6.73418 23.6706L6.66491 23.7872L6.66673 23.7891C6.65579 23.8069 6.64546 23.8252 6.63574 23.8438L6.62845 23.8583C6.5663 23.9855 6.53389 24.1251 6.53366 24.2667C6.53366 24.5142 6.63199 24.7516 6.80703 24.9266C6.98206 25.1017 7.21946 25.2 7.46699 25.2C7.61421 25.2 7.75932 25.1651 7.89048 25.0982C8.02164 25.0314 8.13513 24.9345 8.22168 24.8154H8.2235L8.23809 24.7935C8.23869 24.7929 8.2393 24.7923 8.23991 24.7917L11.3443 20.0776L9.29355 18.4096Z" fill="#48847A"/>
</svg>
