<svg width="28" height="28" viewBox="0 0 28 28" fill="none" xmlns="http://www.w3.org/2000/svg">
<path d="M14.0069 3.73333C13.8265 3.73196 13.6496 3.78287 13.4975 3.87993C13.3455 3.97698 13.2248 4.11602 13.1501 4.28021C8.54869 14.4033 2.09776 21.7857 2.09776 21.7857C1.97985 21.9206 1.90326 22.0866 1.87715 22.2639C1.85104 22.4412 1.87651 22.6222 1.95051 22.7854C2.02452 22.9486 2.14393 23.087 2.29449 23.1842C2.44505 23.2814 2.62039 23.3331 2.79958 23.3333H10.1806C10.1921 23.3329 10.2037 23.3323 10.2152 23.3315C10.3969 23.3415 10.5776 23.2982 10.735 23.2069C10.8924 23.1155 11.0197 22.9802 11.1011 22.8174C11.1011 22.8174 12.8308 19.3383 14.0524 14.6307C15.467 19.173 17.5767 22.433 17.7931 22.7609C17.858 22.9155 17.9634 23.0497 18.0981 23.1494C18.2328 23.2492 18.3919 23.3108 18.5587 23.3279C18.5823 23.33 18.6061 23.3312 18.6298 23.3315C18.6419 23.3324 18.6541 23.333 18.6663 23.3333C18.6717 23.3334 18.6772 23.3334 18.6827 23.3333H25.1996C25.3742 23.3332 25.5452 23.284 25.6932 23.1915C25.8413 23.099 25.9604 22.9668 26.0372 22.81C26.1139 22.6532 26.145 22.478 26.1272 22.3043C26.1093 22.1307 26.0431 21.9655 25.936 21.8276C25.936 21.8276 24.3392 19.7644 22.1754 16.5813L22.3248 16.2349C22.4074 16.0424 22.4229 15.8277 22.3686 15.6253C22.3144 15.4229 22.1937 15.2447 22.0259 15.1193L20.398 13.8979C18.574 11.068 16.5701 7.72037 14.8345 4.24922C14.7575 4.09529 14.6395 3.96564 14.4934 3.8746C14.3474 3.78356 14.179 3.73467 14.0069 3.73333ZM15.5126 12.569L19.0418 15.2159C19.1179 15.2975 19.208 15.3648 19.3079 15.4146L20.2376 16.1128L20.0899 16.7052L18.5623 20.2708C17.7203 18.8335 16.4781 16.3594 15.5126 12.569Z" fill="#48847A"/>
</svg>
