<svg width="28" height="28" viewBox="0 0 28 28" fill="none" xmlns="http://www.w3.org/2000/svg">
<path d="M5.60007 3.73333C4.56873 3.73333 3.7334 4.56867 3.7334 5.6V15.8667C3.7334 16.898 4.56873 17.7333 5.60007 17.7333H22.4001C23.4314 17.7333 24.2667 16.898 24.2667 15.8667V5.6C24.2667 4.56867 23.4314 3.73333 22.4001 3.73333H5.60007ZM8.40006 7.46667H19.6001C20.1153 7.46667 20.5334 7.8848 20.5334 8.4C20.5334 8.9152 20.1153 9.33333 19.6001 9.33333H8.40006C7.88487 9.33333 7.46673 8.9152 7.46673 8.4C7.46673 7.8848 7.88487 7.46667 8.40006 7.46667ZM8.40006 12.1333H19.6001C20.1153 12.1333 20.5334 12.5515 20.5334 13.0667C20.5334 13.5819 20.1153 14 19.6001 14H8.40006C7.88487 14 7.46673 13.5819 7.46673 13.0667C7.46673 12.5515 7.88487 12.1333 8.40006 12.1333ZM6.96361 19.6L19.3941 24.1536C20.3619 24.5083 21.4347 24.0114 21.7894 23.0435L23.0508 19.6H6.96361Z" fill="#48847A"/>
</svg>
