<svg width="300" height="300" viewBox="0 0 300 300" fill="none" xmlns="http://www.w3.org/2000/svg">
<g clip-path="url(#clip0_96_4095)">
<path d="M81.2616 245.99C77.1054 239.217 72.1178 233.989 69.3556 223.354C66.8215 213.598 62.1153 212.569 59.5897 214.798C56.5616 217.472 55.849 229.83 81.2616 245.99Z" fill="#232323"/>
<path d="M82.3304 245.515C81.9749 245.676 81.6183 245.834 81.2604 245.989H81.2593C76.111 248.233 66.7875 251.727 61.4304 253.476L57.0687 245.559C57.0687 245.559 56.418 238.855 57.4522 236.971C67.0422 231.236 72.5816 226.748 72.5929 226.74C72.5929 226.74 80.4683 238.558 82.3304 245.515Z" fill="white"/>
<path d="M71.4767 249.897C67.8311 251.272 64.1522 252.588 61.4305 253.476L57.0688 245.559L57.4524 236.971C59.2477 235.898 61.024 234.794 62.7806 233.658L71.4767 249.897Z" fill="#48847A" fill-opacity="0.5"/>
<mask id="mask0_96_4095" style="mask-type:luminance" maskUnits="userSpaceOnUse" x="55" y="235" width="19" height="19">
<path d="M73.7976 245.605C71.2623 248.565 68.6694 251.489 66.7105 253.578L59.0808 248.736L55.2891 241.023C56.3472 239.218 57.3736 237.395 58.3679 235.554L73.7976 245.605Z" fill="white"/>
</mask>
<g mask="url(#mask0_96_4095)">
<path d="M59.6758 236.01L60.6837 235.457L68.8958 250.435L67.8879 250.988L59.6758 236.01Z" fill="white"/>
</g>
<path d="M72.4274 227.748C74.0085 230.191 79.719 239.234 81.5028 245.129C81.3536 245.195 81.1904 245.267 81.0072 245.347C80.9994 245.35 80.9915 245.353 80.9838 245.356C76.2236 247.431 67.4097 250.768 61.7582 252.642L57.7418 245.351C57.5162 242.917 57.4002 238.846 57.983 237.458C65.6662 232.851 70.7204 229.07 72.4274 227.748ZM72.5929 226.74C72.5817 226.748 67.0422 231.236 57.4523 236.971C56.418 238.855 57.0688 245.559 57.0688 245.559L61.4304 253.477C66.7876 251.727 76.1111 248.233 81.2593 245.989H81.2605C81.6183 245.834 81.975 245.676 82.3305 245.515C80.4684 238.558 72.5929 226.74 72.5929 226.74Z" fill="#232323"/>
<path d="M62.6935 282.297C60.9915 282.064 58.2145 281.079 55.2771 277.206C49.8638 270.069 35.8999 247.068 35.8999 247.068C38.6486 245.948 40.4385 245.219 42.0076 244.55C41.9949 244.546 41.9796 244.541 41.9658 244.537C56.8586 237.642 52.9685 239.416 57.1727 237.466C57.1844 237.46 57.1961 237.454 57.2084 237.449C57.8046 237.173 58.1425 237.021 58.1476 237.029C59.6525 239.872 57.9581 242.596 58.5471 245.312C58.5665 245.4 58.5865 245.49 58.609 245.58C59.1754 247.855 61.1707 252.332 62.6837 255.483C67.6348 265.793 66.3157 277.147 62.7259 282.253L62.7249 282.254C62.7151 282.269 62.7046 282.283 62.6935 282.297Z" fill="white"/>
<path d="M63.7004 280.51C54.9742 276.918 52.6017 267.731 51.7972 262.973C51.1035 258.869 48.6843 258.891 47.859 255.708C47.1689 253.05 48.3163 251.357 46.8717 248.329C46.0504 246.61 43.6973 245.041 41.9658 244.538C55.2753 238.375 58.1405 237.017 58.1476 237.029C59.6942 239.95 57.8659 242.632 58.6091 245.58C59.1754 247.855 61.1707 252.332 62.6838 255.483C66.9544 264.376 66.7401 274.334 63.7004 280.51Z" fill="#232323"/>
<path d="M58.0266 249.859C57.9759 249.859 57.9259 249.848 57.88 249.827C57.8341 249.805 57.7935 249.774 57.7611 249.735C55.8198 247.398 54.8982 247.063 53.062 246.395C52.5678 246.216 52.008 246.012 51.3519 245.741C48.1903 244.435 47.1732 242.455 47.1315 242.371C47.0921 242.29 47.0864 242.196 47.1156 242.11C47.1448 242.024 47.2066 241.953 47.2876 241.913C47.3686 241.872 47.4623 241.865 47.5485 241.893C47.6347 241.921 47.7064 241.982 47.7482 242.062C47.7648 242.094 48.7208 243.907 51.615 245.103C52.2575 245.368 52.8101 245.569 53.2975 245.747C55.189 246.435 56.2311 246.814 58.2915 249.294C58.3334 249.344 58.36 249.405 58.3684 249.47C58.3767 249.535 58.3664 249.601 58.3386 249.661C58.3108 249.72 58.2667 249.77 58.2115 249.805C58.1562 249.841 58.0921 249.859 58.0266 249.859Z" fill="white"/>
<path d="M62.6931 282.642C62.6775 282.642 62.6618 282.641 62.6463 282.639C59.2499 282.173 56.6147 279.541 55.0022 277.414C49.64 270.345 35.7446 247.477 35.605 247.247C35.579 247.204 35.5626 247.156 35.5569 247.107C35.5512 247.057 35.5564 247.007 35.5721 246.959C35.5878 246.912 35.6135 246.868 35.6477 246.832C35.6818 246.796 35.7234 246.767 35.7697 246.748C38.5408 245.62 40.219 244.935 41.7168 244.299C41.7458 244.268 41.7808 244.243 41.8207 244.224C49.5904 240.627 53.6509 238.73 55.8325 237.712C56.7055 237.304 57.2462 237.051 57.5696 236.903C57.6837 236.85 57.7984 236.798 57.9136 236.747C58.0042 236.708 58.279 236.59 58.4393 236.845C58.4438 236.852 58.448 236.86 58.4519 236.867C59.3836 238.627 59.1598 240.322 58.9433 241.962C58.7934 243.097 58.6519 244.17 58.8836 245.238C59.4524 247.847 62.1736 253.625 62.9941 255.333C65.7967 261.169 66.8624 267.762 65.9951 273.895L65.9916 273.918L65.9804 273.989C65.7 276.434 64.4395 280.415 63.0077 282.452L63.0003 282.462C62.9889 282.478 62.976 282.495 62.9652 282.509C62.933 282.551 62.8917 282.584 62.8446 282.607C62.7974 282.63 62.7456 282.642 62.6931 282.642ZM36.405 247.234C38.175 250.14 50.5727 270.433 55.5516 276.997C58.2228 280.519 60.7881 281.63 62.5333 281.924C63.8687 279.935 65.0328 276.212 65.2961 273.904C65.2969 273.897 65.298 273.89 65.2992 273.882L65.314 273.787C66.1608 267.798 65.1168 261.347 62.3726 255.632C61.5439 253.906 58.7946 248.067 58.2099 245.385C57.9525 244.198 58.1087 243.015 58.2597 241.871C58.4585 240.366 58.6469 238.938 57.9815 237.473C57.6688 237.616 57.0719 237.895 56.1242 238.337C53.957 239.349 49.9357 241.227 42.2665 244.778C42.233 244.816 42.1911 244.847 42.1426 244.868C40.668 245.496 39.0508 246.157 36.405 247.234Z" fill="#232323"/>
<path d="M63.7013 280.856C63.6499 280.856 63.5988 280.845 63.5523 280.823C59.6807 279.224 56.6267 276.371 54.4742 272.342C53.0732 269.72 52.0581 266.587 51.4569 263.031C51.0786 260.792 50.1912 259.742 49.3328 258.727C48.668 257.94 47.9804 257.126 47.6092 255.821C47.2603 254.594 47.3338 253.631 47.4052 252.7C47.4931 251.554 47.5757 250.471 46.89 248.888C45.7182 246.183 42.1671 244.828 42.1313 244.814C42.0472 244.781 41.9794 244.716 41.9425 244.634C41.9057 244.551 41.9027 244.457 41.9343 244.372C41.9659 244.288 42.0295 244.219 42.1114 244.18C42.1934 244.142 42.287 244.137 42.3723 244.168C42.5292 244.226 46.2328 245.636 47.5228 248.613C48.2767 250.353 48.1832 251.573 48.0929 252.752C48.0233 253.663 47.9574 254.524 48.2726 255.632C48.6032 256.794 49.2134 257.517 49.8596 258.281C50.735 259.317 51.7272 260.491 52.1371 262.916C52.7258 266.398 53.7168 269.46 55.0825 272.016C57.1607 275.906 60.1045 278.657 63.8321 280.192C63.9058 280.222 63.9666 280.277 64.0043 280.348C64.042 280.418 64.0541 280.499 64.0387 280.578C64.0233 280.656 63.9813 280.727 63.9197 280.777C63.8582 280.828 63.781 280.856 63.7013 280.856Z" fill="#232323"/>
<path d="M44.0233 254.306C43.6431 254.306 43.2297 254.197 42.8039 253.977C42.0629 253.596 41.3584 252.919 40.8203 252.072C40.2821 251.225 39.9692 250.299 39.9389 249.466C39.9064 248.566 40.2045 247.869 40.7784 247.504C41.3521 247.139 42.1092 247.165 42.9099 247.577C43.6508 247.958 44.3553 248.635 44.8935 249.482C45.4316 250.33 45.7445 251.255 45.7748 252.088C45.8073 252.989 45.5092 253.686 44.9353 254.05C44.6665 254.221 44.3578 254.306 44.0233 254.306ZM41.6928 247.939C41.4874 247.939 41.3032 247.988 41.1482 248.086C40.7896 248.314 40.6048 248.795 40.6283 249.441C40.6541 250.153 40.929 250.956 41.4024 251.702C41.8759 252.447 42.4855 253.038 43.1193 253.364C43.693 253.659 44.2069 253.696 44.5653 253.468C44.9239 253.24 45.1088 252.759 45.0853 252.114C45.0595 251.401 44.7846 250.598 44.3112 249.852C43.8377 249.107 43.2281 248.517 42.5943 248.191C42.2687 248.023 41.9624 247.939 41.6928 247.939Z" fill="#232323"/>
<path d="M65.2738 261.088C65.0637 261.088 64.8609 261.012 64.7036 260.872C60.9886 257.592 56.5208 258.03 56.4763 258.035C56.2492 258.06 56.0215 257.993 55.8433 257.85C55.6651 257.707 55.5509 257.499 55.5258 257.272C55.4738 256.799 55.8127 256.374 56.285 256.32C56.4976 256.296 61.5381 255.776 65.8444 259.578C65.9758 259.694 66.0687 259.848 66.1109 260.018C66.153 260.188 66.1424 260.367 66.0805 260.531C66.0185 260.695 65.9081 260.836 65.764 260.935C65.6199 261.035 65.4489 261.088 65.2738 261.088ZM66.0405 265.533C65.8145 265.534 65.5975 265.445 65.4364 265.286C61.8849 261.797 57.3407 262.167 57.2951 262.171C56.8217 262.215 56.4017 261.866 56.3573 261.393C56.3129 260.919 56.6587 260.499 57.1318 260.453C57.3487 260.432 62.5032 259.986 66.6445 264.055C66.8077 264.215 66.9005 264.434 66.9026 264.663C66.9048 264.891 66.8159 265.112 66.6557 265.275C66.5756 265.357 66.4799 265.422 66.3742 265.466C66.2685 265.511 66.1551 265.534 66.0405 265.533ZM66.3935 269.854C66.2799 269.854 66.1673 269.832 66.0623 269.788C65.9574 269.744 65.8622 269.68 65.7821 269.599C62.6359 266.433 58.7265 266.654 58.6878 266.657C58.4598 266.672 58.235 266.597 58.0627 266.447C57.8905 266.297 57.7848 266.084 57.769 265.856C57.7359 265.382 58.0909 264.97 58.5646 264.936C58.7556 264.922 63.2826 264.636 67.005 268.383C67.1251 268.504 67.2067 268.657 67.2396 268.824C67.2725 268.992 67.2551 269.165 67.1897 269.322C67.1243 269.48 67.0137 269.614 66.872 269.709C66.7304 269.803 66.5638 269.854 66.3935 269.854Z" fill="#48847A" fill-opacity="0.5"/>
<path d="M108.812 255.615C101.925 255.853 94.8919 255.412 82.8058 246.109C76.6308 241.356 70.812 240.524 69.9807 244.921C68.6583 251.916 82.3308 260.606 108.812 255.615Z" fill="#232323"/>
<path d="M108.812 255.734C107.217 261.117 105.713 265.865 103.459 270.982L94.562 271.063L88.0308 265.478C88.4806 260.069 88.9042 248.94 88.9807 247.179L108.812 255.734Z" fill="white"/>
<path d="M107.425 260.311C106.487 263.236 105.149 267.112 103.644 270.562C103.583 270.703 103.521 270.842 103.459 270.982L94.562 271.063L88.0308 265.478C88.1745 263.75 88.3182 261.392 88.4488 258.942L107.425 260.311Z" fill="#48847A" fill-opacity="0.5"/>
<mask id="mask1_96_4095" style="mask-type:luminance" maskUnits="userSpaceOnUse" x="88" y="258" width="20" height="14">
<path d="M107.425 260.311C106.487 263.236 105.149 267.112 103.644 270.562C103.583 270.703 103.521 270.842 103.459 270.982L94.562 271.063L88.0308 265.478C88.1745 263.75 88.3182 261.392 88.4488 258.942L107.425 260.311Z" fill="white"/>
</mask>
<g mask="url(#mask1_96_4095)">
<path d="M105.884 264.101C101.206 263.765 92.7384 263.165 88.5859 262.928L88.6512 261.78C92.8112 262.017 101.285 262.617 105.966 262.954L105.884 264.101Z" fill="white"/>
</g>
<path d="M89.6334 248.087L108.655 253.61L108.148 255.549C106.434 261.333 105.029 265.641 103.006 270.296L94.8138 270.37L88.7468 265.182C89.1318 260.339 89.4897 251.595 89.6265 248.253L89.6334 248.087ZM88.9807 247.179C88.9042 248.94 88.4806 260.068 88.0308 265.478L94.562 271.063L103.459 270.982C105.713 265.865 107.217 261.117 108.812 255.734L109.492 253.134L88.9807 247.179Z" fill="#232323"/>
<path d="M129.104 285.594C128.001 286.912 125.69 288.74 120.85 289.168C111.93 289.957 85.0381 289.55 85.0381 289.55C85.5535 286.625 85.8884 284.721 86.158 283.036C86.1473 283.044 86.1354 283.055 86.1247 283.064C86.4797 280.297 86.8491 277.412 87.1828 274.793C87.6507 271.127 88.033 267.981 88.2325 266.418C88.2337 266.405 88.2349 266.392 88.2372 266.379C88.3203 265.726 88.3714 265.359 88.3809 265.359C91.5872 265.597 92.9908 268.482 95.6021 269.428C95.6876 269.458 95.7743 269.489 95.8621 269.518C98.0887 270.249 102.938 270.94 106.409 271.335C110.675 271.82 114.473 273.242 116.389 274.088C116.685 274.216 116.977 274.352 117.266 274.496C117.671 274.697 118.072 274.906 118.469 275.123C118.595 275.193 118.721 275.264 118.847 275.335C119.042 275.445 119.235 275.557 119.423 275.67C119.482 275.704 119.539 275.737 119.596 275.772C120.916 276.566 122.068 277.39 123.07 278.208C123.162 278.281 123.251 278.356 123.34 278.431C123.372 278.457 123.404 278.483 123.435 278.511C123.466 278.537 123.498 278.563 123.529 278.589C123.537 278.597 123.546 278.604 123.555 278.612C123.57 278.626 123.587 278.639 123.602 278.653C123.608 278.658 123.613 278.663 123.619 278.668C123.7 278.736 123.779 278.806 123.857 278.876C123.879 278.893 123.9 278.912 123.922 278.931C123.964 278.969 124.008 279.009 124.052 279.049C124.07 279.064 124.088 279.081 124.106 279.098C124.163 279.149 124.218 279.199 124.274 279.25C124.279 279.255 124.285 279.259 124.29 279.264L124.347 279.318C124.367 279.337 124.387 279.354 124.407 279.374C124.445 279.408 124.483 279.445 124.521 279.481C124.542 279.498 124.561 279.517 124.581 279.538C124.589 279.545 124.599 279.553 124.607 279.561C124.616 279.57 124.626 279.578 124.635 279.588C124.691 279.642 124.747 279.696 124.802 279.749C124.879 279.824 124.954 279.898 125.027 279.971C125.06 280.004 125.093 280.036 125.123 280.068C125.164 280.107 125.202 280.147 125.241 280.186C125.311 280.258 125.38 280.329 125.448 280.4C125.492 280.447 125.535 280.492 125.58 280.538C125.602 280.563 125.625 280.587 125.647 280.611C125.689 280.655 125.73 280.7 125.77 280.744C125.802 280.778 125.832 280.811 125.863 280.846C125.961 280.952 126.055 281.057 126.145 281.161C126.188 281.21 126.232 281.258 126.272 281.306C126.342 281.386 126.41 281.466 126.476 281.546L126.638 281.739L126.716 281.836C126.742 281.867 126.767 281.899 126.792 281.931C126.843 281.994 126.893 282.055 126.942 282.118C127.042 282.244 127.14 282.372 127.236 282.501C127.268 282.544 127.299 282.584 127.329 282.626C127.521 282.885 127.695 283.132 127.851 283.366C127.883 283.414 127.916 283.46 127.945 283.506C128 283.587 128.051 283.667 128.101 283.745C128.174 283.861 128.247 283.978 128.318 284.096C128.35 284.148 128.381 284.199 128.411 284.249C128.593 284.557 128.764 284.872 128.922 285.193C128.938 285.223 128.952 285.253 128.965 285.28C129.007 285.367 129.046 285.455 129.084 285.543V285.544C129.091 285.559 129.095 285.57 129.098 285.578C129.1 285.583 129.102 285.589 129.104 285.594Z" fill="white"/>
<path d="M128.128 283.79C120.445 289.272 111.409 286.394 106.954 284.543C103.113 282.948 101.845 285.009 98.712 284.015C96.096 283.185 95.2742 281.312 91.9432 280.925C90.0511 280.706 87.4717 281.865 86.1245 283.064C88.1074 267.609 88.3457 265.359 88.3808 265.359C91.6759 265.603 92.9726 268.579 95.862 269.518C98.0886 270.249 102.938 270.94 106.409 271.335C116.353 272.465 124.533 277.951 128.128 283.79Z" fill="#232323"/>
<path d="M87.2802 277.543C87.1393 277.543 87.0566 277.536 87.0401 277.535C86.9491 277.526 86.8653 277.481 86.8071 277.41C86.749 277.34 86.7213 277.249 86.7301 277.158C86.739 277.067 86.7836 276.983 86.8542 276.925C86.9248 276.866 87.0157 276.839 87.1067 276.848C87.1405 276.851 89.1838 277.007 91.7374 275.189C92.3038 274.786 92.7678 274.425 93.1772 274.106C94.7655 272.87 95.6407 272.189 98.8356 271.762C98.8808 271.756 98.9268 271.758 98.9709 271.77C99.0151 271.781 99.0566 271.801 99.093 271.829C99.1294 271.856 99.1599 271.891 99.1829 271.93C99.2059 271.97 99.2208 272.013 99.2268 272.058C99.2329 272.104 99.2299 272.15 99.218 272.194C99.2062 272.238 99.1857 272.279 99.1578 272.315C99.1299 272.351 99.0951 272.381 99.0555 272.404C99.0158 272.427 98.9721 272.441 98.9268 272.447C95.9168 272.848 95.1429 273.451 93.6007 274.651C93.1859 274.974 92.7156 275.34 92.1371 275.752C89.8427 277.385 87.9351 277.543 87.2802 277.543Z" fill="white"/>
<path d="M99.9218 289.998C92.0228 289.998 85.1682 289.897 85.0326 289.895C84.9826 289.894 84.9335 289.882 84.8885 289.861C84.8434 289.839 84.8037 289.808 84.7719 289.77C84.74 289.731 84.717 289.686 84.7043 289.638C84.6915 289.589 84.6894 289.539 84.6981 289.49C85.2176 286.543 85.5311 284.757 85.7902 283.149C85.7794 283.107 85.7768 283.063 85.7824 283.02C86.1374 280.253 86.5068 277.368 86.8404 274.749C87.1285 272.491 87.38 270.465 87.5821 268.837C87.6879 267.98 87.7951 267.123 87.9038 266.266C87.9431 265.959 87.9745 265.72 87.9974 265.557C88.0368 265.278 88.074 265.014 88.3806 265.014C88.3891 265.014 88.3975 265.014 88.4061 265.015C90.3826 265.161 91.6775 266.234 92.9299 267.271C93.8806 268.059 94.7786 268.803 95.9685 269.19C98.6112 270.057 104.658 270.788 106.448 270.992C113.151 271.754 118.216 274.384 121.285 276.456C125.155 279.069 128.113 282.332 129.402 285.409C129.404 285.414 129.405 285.418 129.407 285.422C129.414 285.439 129.421 285.457 129.428 285.475C129.449 285.532 129.454 285.593 129.444 285.653C129.433 285.713 129.407 285.769 129.368 285.815C127.167 288.445 123.537 289.277 120.88 289.512C116.496 289.9 107.702 289.998 99.9218 289.998ZM85.4479 289.21C88.8485 289.257 112.616 289.55 120.819 288.824C125.221 288.435 127.526 286.853 128.703 285.53C127.433 282.616 124.599 279.526 120.899 277.028C117.894 274.999 112.935 272.424 106.371 271.678C104.564 271.472 98.4585 270.733 95.7545 269.846C94.4404 269.419 93.4488 268.597 92.49 267.803C91.3416 266.852 90.2531 265.95 88.6691 265.736C88.5958 266.272 88.446 267.479 88.2669 268.922C88.0647 270.551 87.8131 272.577 87.5248 274.836C87.1805 277.537 86.8351 280.237 86.4886 282.938C86.503 282.986 86.5068 283.038 86.4984 283.09C86.2449 284.674 85.9438 286.396 85.4479 289.21Z" fill="#232323"/>
<path d="M117.861 287.316C117.343 287.316 116.824 287.297 116.307 287.261C113.342 287.052 110.152 286.245 106.823 284.863C104.727 283.992 103.367 284.185 102.051 284.372C101.031 284.517 99.9771 284.667 98.6751 284.286C97.4512 283.929 96.6755 283.354 95.9253 282.798C95.0023 282.114 94.1304 281.468 92.4257 281.207C89.5112 280.76 86.4621 282.993 86.4316 283.016C86.3952 283.043 86.3539 283.062 86.31 283.073C86.2661 283.084 86.2204 283.087 86.1756 283.08C86.1307 283.074 86.0877 283.058 86.0488 283.035C86.0099 283.012 85.976 282.981 85.949 282.945C85.9219 282.908 85.9023 282.867 85.8913 282.823C85.8802 282.779 85.8779 282.733 85.8845 282.688C85.8911 282.644 85.9065 282.6 85.9297 282.562C85.953 282.523 85.9837 282.489 86.02 282.462C86.1536 282.362 89.3268 280.033 92.5301 280.525C94.4038 280.812 95.386 281.54 96.3359 282.244C97.0698 282.788 97.7629 283.301 98.8683 283.624C100.027 283.962 100.963 283.829 101.954 283.689C103.296 283.498 104.817 283.282 107.087 284.225C110.347 285.579 113.465 286.369 116.355 286.572C120.752 286.881 124.646 285.85 127.928 283.509C127.966 283.481 128.008 283.462 128.054 283.452C128.099 283.441 128.146 283.44 128.191 283.448C128.237 283.456 128.28 283.473 128.319 283.499C128.358 283.524 128.392 283.557 128.417 283.596C128.443 283.634 128.461 283.677 128.47 283.723C128.479 283.768 128.478 283.815 128.468 283.861C128.459 283.906 128.44 283.949 128.413 283.987C128.387 284.025 128.353 284.057 128.313 284.082C125.294 286.231 121.784 287.316 117.861 287.316ZM91.8574 288.043C89.6999 288.043 88.0097 286.995 88.003 285.648C87.9997 284.968 88.4244 284.34 89.1989 283.881C89.9157 283.456 90.8633 283.22 91.8667 283.214H91.9C94.0574 283.214 95.7477 284.263 95.7543 285.61C95.7577 286.29 95.333 286.917 94.5585 287.377C93.8417 287.802 92.8941 288.038 91.8907 288.043H91.8574ZM91.8984 283.905H91.87C90.9872 283.909 90.1635 284.112 89.5505 284.475C88.9952 284.804 88.6906 285.22 88.6927 285.645C88.6973 286.574 90.1443 287.353 91.8589 287.353H91.8873C92.7701 287.349 93.5938 287.146 94.2068 286.783C94.7621 286.454 95.0666 286.038 95.0645 285.613C95.0599 284.683 93.613 283.905 91.8984 283.905Z" fill="#232323"/>
<path d="M103.871 278.881C103.759 278.881 103.646 278.86 103.537 278.813C103.326 278.725 103.16 278.556 103.074 278.345C102.987 278.133 102.989 277.896 103.077 277.686C103.16 277.488 105.165 272.832 110.583 270.926C110.69 270.887 110.804 270.87 110.918 270.875C111.031 270.881 111.143 270.909 111.246 270.957C111.349 271.006 111.441 271.075 111.517 271.16C111.593 271.244 111.652 271.343 111.69 271.451C111.727 271.558 111.744 271.672 111.737 271.786C111.731 271.9 111.702 272.011 111.652 272.113C111.602 272.216 111.533 272.308 111.448 272.383C111.362 272.459 111.263 272.516 111.155 272.553C106.481 274.198 104.684 278.314 104.666 278.355C104.6 278.511 104.489 278.644 104.348 278.738C104.206 278.831 104.041 278.881 103.871 278.881ZM107.885 280.172C107.741 280.172 107.6 280.137 107.474 280.068C107.348 280 107.241 279.901 107.163 279.781C107.085 279.661 107.038 279.523 107.026 279.381C107.014 279.238 107.038 279.094 107.096 278.963C107.183 278.763 109.309 274.043 114.879 272.411C114.987 272.379 115.101 272.369 115.214 272.381C115.326 272.393 115.435 272.427 115.535 272.482C115.634 272.536 115.722 272.61 115.793 272.698C115.864 272.786 115.917 272.888 115.948 272.996C116.013 273.216 115.987 273.452 115.877 273.653C115.768 273.854 115.583 274.003 115.363 274.067C110.557 275.476 108.693 279.615 108.675 279.656C108.607 279.81 108.497 279.94 108.357 280.032C108.216 280.124 108.052 280.172 107.885 280.172ZM112.485 281.124C112.359 281.124 112.234 281.096 112.119 281.042C111.689 280.84 111.504 280.329 111.704 279.898C111.785 279.724 113.745 275.631 118.83 274.207C118.939 274.177 119.053 274.168 119.165 274.182C119.278 274.195 119.386 274.231 119.485 274.286C119.584 274.342 119.67 274.416 119.74 274.506C119.81 274.595 119.862 274.697 119.892 274.806C119.954 275.026 119.926 275.262 119.813 275.462C119.701 275.661 119.515 275.808 119.294 275.869C114.997 277.073 113.283 280.595 113.266 280.63C113.196 280.778 113.085 280.903 112.947 280.99C112.809 281.078 112.649 281.124 112.485 281.124Z" fill="#48847A" fill-opacity="0.5"/>
<path d="M124.546 203.272C122.62 210.148 118.971 216.649 114.021 222.523C113.562 230.424 112.018 245.99 108.812 255.734C98.0056 257.16 89.7501 251.418 83.1618 246.347C76.9868 241.594 71.0493 240.406 69.9805 244.921C70.8117 239.217 71.643 236.841 73.068 233.276C71.7618 229.949 70.7025 228.553 69.5649 224.186C66.2993 211.65 61.0743 213.432 59.5898 214.798C64.1618 210.105 74.8492 209.748 79.0281 209.891C79.4212 195.311 72.4149 183.666 67.4275 170.476C63.6441 160.471 62.6478 151.005 63.4612 143.718C63.6998 141.569 64.0965 139.61 64.6273 137.882C64.8327 137.206 65.0701 136.54 65.3385 135.886C68.3774 128.531 105.606 132.63 105.606 132.63C105.606 132.63 106.172 134.654 107.631 138.252C109.095 141.858 111.831 146.848 115.046 153.365C121.993 167.446 129.355 186.102 124.546 203.272Z" fill="#48847A"/>
<path d="M107.632 138.252C107.01 138.58 106.382 138.894 105.746 139.194C102.33 140.815 98.7944 142.008 95.3375 142.885C87.9679 144.756 80.9569 145.187 76.2212 145.228C71.9604 145.265 67.6414 144.787 63.4614 143.718C63.7001 141.569 64.0967 139.61 64.6275 137.882C73.8722 140.322 84.4825 139.249 93.2071 137.038C93.2285 137.032 93.2499 137.028 93.2712 137.022C97.1259 136.043 100.609 134.841 103.441 133.625C103.541 133.582 103.639 133.539 103.738 133.495C104.399 133.207 105.023 132.918 105.606 132.63C105.606 132.63 106.172 134.654 107.632 138.252Z" fill="#232323"/>
<mask id="mask2_96_4095" style="mask-type:luminance" maskUnits="userSpaceOnUse" x="59" y="131" width="67" height="125">
<path d="M105.606 132.63C105.606 132.63 107.874 140.744 115.046 153.365C121.934 165.485 129.059 186.518 124.546 203.272C122.689 210.166 118.971 216.649 114.022 222.523C113.562 230.424 112.018 245.99 108.812 255.734C98.0056 257.16 89.7505 251.418 83.1618 246.347C76.9868 241.594 71.0493 240.405 69.9805 244.921C70.8117 239.217 71.643 236.841 73.068 233.276C71.7618 229.949 70.7025 228.553 69.5649 224.186C66.2993 211.649 61.0743 213.432 59.5898 214.798C64.1618 210.105 74.8492 209.748 79.0282 209.89C79.4211 195.311 72.4148 183.666 67.4273 170.476C62.0739 156.319 62.2999 143.242 65.3387 135.886C68.3774 128.531 105.606 132.63 105.606 132.63Z" fill="white"/>
</mask>
<g mask="url(#mask2_96_4095)">
<path d="M114.253 225.131C114.206 225.131 114.159 225.122 114.116 225.103C114.073 225.084 114.034 225.057 114.001 225.022C113.969 224.988 113.944 224.947 113.928 224.903C113.912 224.858 113.906 224.811 113.909 224.764C114.253 219.456 114.112 212.566 113.521 205.861C112.748 197.082 111.284 188.889 109.171 181.51C102.933 159.721 103.32 151.323 103.34 150.976C103.342 150.931 103.354 150.886 103.373 150.845C103.393 150.804 103.42 150.768 103.454 150.737C103.488 150.707 103.527 150.684 103.57 150.669C103.613 150.654 103.658 150.648 103.704 150.651C103.795 150.656 103.88 150.697 103.941 150.765C104.002 150.834 104.034 150.923 104.029 151.015C104.024 151.099 103.638 159.677 109.834 181.32C111.959 188.741 113.431 196.978 114.208 205.801C114.802 212.539 114.944 219.467 114.597 224.809C114.591 224.896 114.553 224.978 114.489 225.038C114.425 225.098 114.341 225.131 114.253 225.131ZM71.594 235.472C71.5337 235.472 71.4744 235.456 71.4222 235.426C71.3699 235.396 71.3265 235.353 71.2962 235.301C71.2659 235.248 71.2498 235.189 71.2495 235.129C71.2493 235.068 71.2648 235.009 71.2947 234.957C74.9921 228.454 77.3081 221.622 78.3749 214.072C79.4022 206.801 79.345 198.732 78.1945 188.678C78.1894 188.633 78.1931 188.587 78.2056 188.544C78.218 188.5 78.239 188.459 78.2672 188.424C78.2953 188.388 78.3302 188.359 78.3698 188.337C78.4095 188.315 78.453 188.301 78.498 188.296C78.5888 188.286 78.6799 188.312 78.7514 188.369C78.8229 188.426 78.8691 188.508 78.8798 188.599C80.0372 198.713 80.0938 206.838 79.058 214.169C77.9787 221.807 75.6355 228.718 71.8943 235.298C71.8642 235.351 71.8205 235.395 71.7677 235.426C71.715 235.456 71.6551 235.472 71.594 235.472Z" fill="white"/>
</g>
<path d="M55.4339 133.878C62.3807 134.412 78.887 139.403 88.1495 145.582C97.412 151.761 99.6683 157.227 100.618 159.722C101.568 162.218 100.5 163.05 98.362 160.792C95.7055 157.986 94.3245 156.514 94.3245 156.514C94.3245 156.514 96.6996 161.148 96.4621 166.495C96.2245 171.843 94.3245 170.773 93.9684 168.634C93.9684 168.634 93.2558 173.031 90.7621 167.327C90.7621 167.327 91.5933 171.605 87.5559 167.09C79.826 158.445 73.5434 154.969 52.2277 154.246C30.5054 153.508 26.7559 148.672 26.7559 148.672L55.4339 133.878Z" fill="white"/>
<path d="M151.448 69.4144C147.972 79.0418 144.91 93.9948 139.454 106.066C138.288 108.647 137.013 111.096 135.6 113.334C133.288 116.997 130.609 120.094 127.443 122.269C123.013 107.202 117.813 92.8029 117.652 92.3561C117.651 92.3524 117.65 92.3488 117.648 92.3454C117.647 92.3423 117.646 92.3391 117.645 92.3359C117.915 91.9509 129.922 75.074 133.024 68.4375C136.051 61.9627 134.974 59.0027 133.24 56.7247C131.506 54.4469 126.305 50.5434 129.556 50.4341C132.915 50.3235 136.825 53.489 141.044 51.5189C145.981 49.2136 149.278 43.4982 152.145 40.7104C154.887 38.044 155.938 38.8674 154.638 41.7954C153.314 44.7767 151.665 48.8085 151.665 48.8085C151.665 48.8085 152.099 49.0259 152.208 49.5666C152.208 49.5666 153.507 49.5666 154.158 51.627C155.676 51.9541 157.025 53.967 151.448 69.4144Z" fill="white"/>
<path d="M127.443 122.615C127.368 122.615 127.296 122.591 127.236 122.546C127.176 122.501 127.133 122.438 127.112 122.367C122.726 107.446 117.546 93.0779 117.327 92.4736C117.326 92.4702 117.325 92.4668 117.324 92.4633C117.318 92.4481 117.316 92.4391 117.316 92.4391C117.286 92.3384 117.302 92.2234 117.363 92.1376L117.43 92.0425C119.483 89.1425 129.871 74.3684 132.711 68.2916C135.687 61.9263 134.592 59.0713 132.966 56.9342C132.488 56.3064 131.709 55.5215 130.956 54.7626C129.03 52.8202 127.884 51.5791 128.223 50.7245C128.461 50.126 129.277 50.0986 129.545 50.0895C130.856 50.0475 132.201 50.4659 133.628 50.91C135.96 51.636 138.371 52.3867 140.898 51.2066C144.25 49.6417 146.818 46.485 149.085 43.7C150.076 42.4823 151.011 41.3322 151.905 40.4635C153.425 38.9851 154.516 38.4583 155.147 38.8989C155.724 39.3012 155.657 40.3514 154.953 41.936C153.834 44.4553 152.467 47.7654 152.087 48.6904C152.258 48.8474 152.392 49.0417 152.476 49.2585C152.935 49.3634 153.872 49.7695 154.426 51.3414C154.878 51.4827 155.213 51.7576 155.445 52.1769C155.94 53.0692 155.959 54.6782 155.505 57.0958C154.961 59.9954 153.705 64.1793 151.772 69.5318C150.471 73.1365 149.217 77.5271 147.89 82.1756C145.685 89.8967 143.185 98.6479 139.769 106.209C138.536 108.938 137.231 111.397 135.891 113.518C133.368 117.516 130.669 120.471 127.638 122.554C127.58 122.594 127.512 122.615 127.443 122.615ZM118.03 92.3886C118.626 94.0441 123.462 107.568 127.638 121.711C130.433 119.698 132.945 116.893 135.308 113.15C136.631 111.055 137.92 108.624 139.14 105.924C142.536 98.4095 145.028 89.6842 147.226 81.9859C148.557 77.3258 149.814 72.9241 151.124 69.2973C154.531 59.8571 155.782 54.2095 154.842 52.5114C154.675 52.2101 154.442 52.0416 154.085 51.9649C154.026 51.9521 153.971 51.9237 153.926 51.8827C153.881 51.8417 153.847 51.7895 153.829 51.7314C153.271 49.9655 152.246 49.9135 152.203 49.9121C152.043 49.9072 151.902 49.7925 151.87 49.6354C151.797 49.275 151.518 49.1218 151.507 49.1154C151.351 49.0317 151.279 48.8418 151.346 48.6782C151.363 48.6378 153.011 44.6075 154.322 41.6557C155.012 40.1033 154.86 39.5399 154.753 39.465C154.618 39.3711 153.931 39.4558 152.385 40.9584C151.521 41.7991 150.597 42.9341 149.619 44.1358C147.306 46.9783 144.685 50.2002 141.19 51.8321C138.421 53.125 135.765 52.2984 133.423 51.569C132.053 51.1427 130.76 50.7397 129.568 50.7794C129.101 50.795 128.897 50.8968 128.864 50.9791C128.668 51.4754 130.407 53.2288 131.446 54.2763C132.215 55.0511 133.009 55.8522 133.514 56.516C135.272 58.8256 136.468 61.8863 133.336 68.584C130.488 74.6777 120.175 89.3579 118.03 92.3886Z" fill="#232323"/>
<mask id="mask3_96_4095" style="mask-type:luminance" maskUnits="userSpaceOnUse" x="117" y="39" width="39" height="84">
<path d="M151.449 69.4143C150.784 70.9931 142.399 94.6869 139.1 104.438C139.072 104.522 137.743 108.202 137.283 109.197C133.481 117.436 127.443 122.269 127.443 122.269L117.644 92.336C117.915 91.9512 129.923 75.0745 133.024 68.4374C136.051 61.9623 134.974 59.0027 133.24 56.7251C131.506 54.4474 126.305 50.5437 129.556 50.4345C132.915 50.3231 136.826 53.4891 141.044 51.5193C145.981 49.2137 149.11 43.3134 152.145 40.7105C155.179 38.1077 155.938 38.8673 154.637 41.7954C153.314 44.7764 151.665 48.8085 151.665 48.8085C151.665 48.8085 152.098 49.0256 152.208 49.5669C152.208 49.5669 153.508 49.5669 154.158 51.6274C155.676 51.954 157.529 54.9619 151.449 69.4143Z" fill="white"/>
</mask>
<g mask="url(#mask3_96_4095)">
<path d="M143.015 58.6263C142.856 58.6263 142.708 58.5932 142.572 58.526C141.839 58.1652 141.77 56.9623 142.386 55.3078C143.781 51.5614 145.558 49.2396 147.67 48.4071C149.832 47.5551 151.737 48.5084 152.363 48.8218C152.444 48.8635 152.505 48.9352 152.533 49.0215C152.561 49.1077 152.554 49.2015 152.513 49.2826C152.473 49.3636 152.402 49.4255 152.316 49.4548C152.23 49.4841 152.137 49.4785 152.055 49.4391C151.497 49.1599 149.799 48.3101 147.923 49.0492C146.001 49.8069 144.356 51.9936 143.032 55.5487C142.474 57.0475 142.641 57.7904 142.876 57.9066C143.069 58.0019 143.569 57.8651 144.344 57.1677C145.237 56.3638 146.296 55.0005 147.404 53.2252C147.428 53.1868 147.46 53.1535 147.497 53.1272C147.533 53.1009 147.575 53.0821 147.619 53.0719C147.663 53.0617 147.709 53.0603 147.754 53.0678C147.798 53.0753 147.841 53.0915 147.88 53.1155C147.918 53.1395 147.951 53.1709 147.978 53.2078C148.004 53.2447 148.023 53.2864 148.033 53.3306C148.043 53.3747 148.044 53.4205 148.037 53.4652C148.03 53.5098 148.013 53.5526 147.989 53.5911C145.958 56.8431 144.185 58.6262 143.015 58.6263Z" fill="#232323"/>
</g>
<mask id="mask4_96_4095" style="mask-type:luminance" maskUnits="userSpaceOnUse" x="117" y="39" width="39" height="84">
<path d="M151.449 69.4143C150.784 70.9931 142.399 94.6869 139.1 104.438C139.072 104.522 137.743 108.202 137.283 109.197C133.481 117.436 127.443 122.269 127.443 122.269L117.644 92.336C117.915 91.9512 129.923 75.0745 133.024 68.4374C136.051 61.9623 134.974 59.0027 133.24 56.7251C131.506 54.4474 126.305 50.5437 129.556 50.4345C132.915 50.3231 136.826 53.4891 141.044 51.5193C145.981 49.2137 149.11 43.3134 152.145 40.7105C155.179 38.1077 155.938 38.8673 154.637 41.7954C153.314 44.7764 151.665 48.8085 151.665 48.8085C151.665 48.8085 152.098 49.0256 152.208 49.5669C152.208 49.5669 153.508 49.5669 154.158 51.6274C155.676 51.954 157.529 54.9619 151.449 69.4143Z" fill="white"/>
</mask>
<g mask="url(#mask4_96_4095)">
<path d="M145.777 61.2926C145.633 61.2926 145.497 61.2607 145.372 61.1917C144.531 60.7265 144.811 58.8728 146.206 55.6827C147.911 51.7835 149.319 49.7385 152.287 49.3822C152.378 49.3721 152.468 49.3982 152.54 49.4548C152.611 49.5113 152.657 49.5937 152.668 49.684C152.679 49.7744 152.653 49.8654 152.597 49.9372C152.542 50.009 152.46 50.0558 152.369 50.0674C150.008 50.351 148.664 51.7827 146.838 55.9594C145.328 59.4133 145.52 60.4845 145.706 60.5875C145.957 60.7265 147.37 60.0386 149.705 56.6029C149.757 56.5284 149.836 56.4773 149.925 56.4608C150.015 56.4443 150.107 56.4637 150.182 56.5148C150.257 56.5659 150.309 56.6446 150.326 56.7337C150.344 56.8229 150.326 56.9153 150.275 56.991C149.547 58.0631 147.23 61.2924 145.777 61.2926Z" fill="#232323"/>
</g>
<mask id="mask5_96_4095" style="mask-type:luminance" maskUnits="userSpaceOnUse" x="117" y="39" width="39" height="84">
<path d="M151.449 69.4143C150.784 70.9931 142.399 94.6869 139.1 104.438C139.072 104.522 137.743 108.202 137.283 109.197C133.481 117.436 127.443 122.269 127.443 122.269L117.644 92.336C117.915 91.9512 129.923 75.0745 133.024 68.4374C136.051 61.9623 134.974 59.0027 133.24 56.7251C131.506 54.4474 126.305 50.5437 129.556 50.4345C132.915 50.3231 136.826 53.4891 141.044 51.5193C145.981 49.2137 149.11 43.3134 152.145 40.7105C155.179 38.1077 155.938 38.8673 154.637 41.7954C153.314 44.7764 151.665 48.8085 151.665 48.8085C151.665 48.8085 152.098 49.0256 152.208 49.5669C152.208 49.5669 153.508 49.5669 154.158 51.6274C155.676 51.954 157.529 54.9619 151.449 69.4143Z" fill="white"/>
</mask>
<g mask="url(#mask5_96_4095)">
<path d="M149.665 62.335C149.573 62.3356 149.482 62.3202 149.395 62.2896C148.609 62.0097 148.555 60.7184 149.223 58.2259C150.29 54.2468 151.564 51.5698 154.313 51.4388C154.358 51.4365 154.403 51.4433 154.446 51.4586C154.489 51.4738 154.528 51.4974 154.561 51.5279C154.595 51.5584 154.622 51.5953 154.641 51.6363C154.661 51.6774 154.672 51.7218 154.674 51.7671C154.678 51.8586 154.646 51.948 154.585 52.0157C154.523 52.0834 154.437 52.1239 154.346 52.1282C152.324 52.2245 151.075 53.9843 149.89 58.4046C149.097 61.3601 149.621 61.6373 149.626 61.6393C150.142 61.8239 152.251 59.6591 153.794 56.2218C153.812 56.1804 153.839 56.1431 153.872 56.1121C153.905 56.081 153.944 56.0567 153.986 56.0406C154.028 56.0245 154.073 56.0169 154.119 56.0182C154.164 56.0196 154.208 56.0298 154.25 56.0484C154.291 56.067 154.328 56.0935 154.359 56.1265C154.39 56.1595 154.415 56.1983 154.431 56.2406C154.447 56.283 154.454 56.3281 154.453 56.3734C154.452 56.4187 154.442 56.4633 154.423 56.5046C153.271 59.0706 151.064 62.3349 149.665 62.335ZM143.577 63.8236C143.529 63.8237 143.48 63.8135 143.436 63.7936C143.392 63.7737 143.352 63.7446 143.319 63.7083C143.287 63.6719 143.263 63.6291 143.248 63.5826C143.233 63.5362 143.229 63.4871 143.234 63.4387C143.382 62.1621 143.63 55.5961 133.997 51.6899C133.914 51.6548 133.847 51.588 133.813 51.5042C133.778 51.4204 133.777 51.3262 133.811 51.2421C133.845 51.158 133.911 51.0907 133.995 51.0548C134.078 51.0189 134.172 51.0173 134.257 51.0503C144.352 55.1442 144.077 62.1543 143.919 63.5181C143.91 63.6021 143.87 63.6797 143.806 63.736C143.743 63.7923 143.662 63.8235 143.577 63.8236Z" fill="#232323"/>
</g>
<path d="M137.786 112.145C131.714 103.118 122.824 94.8432 117.243 92.1103C116.182 91.5905 115.143 91.7165 114.512 92.3479C110.355 83.7924 95.0366 66.4438 79.0053 71.5533C79.0053 71.5533 77.1053 70.3651 75.324 70.2462C73.0343 70.0935 57.5115 72.1475 57.5115 72.1475C54.899 75.7123 52.4052 78.0888 52.4052 78.0888C52.4052 78.0888 35.1864 131.561 63.6865 138.215C78.5798 141.692 97.6747 136.73 105.393 132.453C106.313 130.744 107.845 128.697 108.218 123.599C110.293 125.836 119.397 128.877 127.848 123.847C132.68 121.223 136.197 117.434 137.741 115.266C138.404 114.335 138.424 113.093 137.786 112.145Z" fill="white"/>
<path d="M74.7263 139.735C71.1028 139.735 67.3001 139.413 63.6086 138.551C58.0502 137.253 53.8136 134.087 51.0164 129.14C48.7674 125.163 47.4266 119.992 47.031 113.771C46.7158 108.813 46.9963 103.176 47.865 97.0184C49.3426 86.5441 52.0503 78.0674 52.0775 77.9829C52.0951 77.9281 52.1262 77.8786 52.1679 77.8389C52.1927 77.8153 54.6716 75.4397 57.2338 71.9434C57.2613 71.9059 57.2961 71.8743 57.3361 71.8505C57.3761 71.8268 57.4205 71.8114 57.4666 71.8054C58.1018 71.7214 73.0537 69.7475 75.3473 69.9019C76.9331 70.0076 78.5687 70.8968 79.05 71.1777C83.9979 69.6442 91.8511 69.3696 101.419 76.5502C107.544 81.1467 112.406 87.442 114.63 91.8107C115.379 91.3249 116.397 91.312 117.395 91.8003C123.449 94.7651 132.339 103.428 138.073 111.952C138.785 113.011 138.765 114.424 138.022 115.467C136.199 118.026 132.614 121.65 128.019 124.147C123.282 126.964 118.653 127.14 115.603 126.791C113.245 126.521 110.185 125.65 108.502 124.324C108.1 128.384 106.933 130.434 106.069 131.952C105.937 132.184 105.812 132.403 105.697 132.616C105.666 132.674 105.619 132.722 105.561 132.754C101.308 135.111 94.3076 137.344 87.2907 138.582C83.8332 139.192 79.4312 139.735 74.7263 139.735ZM52.7082 78.276C52.4275 79.17 49.9378 87.2555 48.5465 97.1258C47.6853 103.236 47.4071 108.823 47.7199 113.734C48.1094 119.847 49.4206 124.917 51.6171 128.801C54.3155 133.573 58.4028 136.627 63.7654 137.879C78.0039 141.203 96.8912 136.728 105.139 132.199C105.247 132.002 105.358 131.806 105.47 131.61C106.399 129.979 107.555 127.948 107.874 123.574C107.879 123.507 107.904 123.443 107.945 123.39C107.985 123.336 108.041 123.296 108.104 123.274C108.167 123.252 108.236 123.248 108.301 123.264C108.366 123.28 108.425 123.315 108.471 123.364C109.429 124.397 112.094 125.694 115.682 126.105C118.627 126.442 123.099 126.273 127.673 123.55C127.676 123.548 127.68 123.545 127.685 123.543C132.184 121.1 135.763 117.449 137.461 115.066C138.038 114.256 138.054 113.159 137.501 112.337C132.675 105.164 123.882 95.7453 117.092 92.4203C116.196 91.9815 115.301 92.0471 114.756 92.5919C114.717 92.6308 114.67 92.6599 114.617 92.6766C114.565 92.6934 114.509 92.6974 114.455 92.6883C114.401 92.6791 114.35 92.6572 114.306 92.6242C114.262 92.5912 114.226 92.5482 114.202 92.4987C112.112 88.1962 107.221 81.7668 101.005 77.1023C95.8007 73.1963 87.7776 69.1198 79.1107 71.8822C79.063 71.8974 79.0127 71.902 78.9631 71.8957C78.9135 71.8895 78.8658 71.8726 78.8234 71.8461C78.8051 71.8347 76.9732 70.7021 75.3019 70.5905C73.1897 70.451 59.2852 72.2627 57.703 72.4704C55.3653 75.6394 53.1141 77.8796 52.7082 78.276Z" fill="#232323"/>
<path d="M34.7651 148.286C30.4369 151.642 27.1119 155.445 27.8838 156.098C28.6557 156.752 36.9682 156.158 55.4338 133.878C55.4338 133.878 45.2181 140.179 34.7651 148.286Z" fill="#232323"/>
<path d="M28.5555 156.59C28.222 156.59 27.8704 156.539 27.6607 156.362C27.5506 156.268 27.4207 156.095 27.427 155.799C27.4579 154.361 31.0747 150.711 34.5535 148.013C44.9014 139.988 55.1502 133.647 55.2525 133.584C55.3221 133.541 55.4047 133.524 55.4854 133.537C55.5662 133.549 55.6399 133.59 55.6935 133.652C55.7471 133.713 55.7771 133.792 55.7781 133.874C55.7791 133.956 55.7511 134.035 55.699 134.098C48.9488 142.243 42.8557 148.346 37.589 152.238C32.6403 155.896 29.8625 156.489 28.8978 156.574C28.7907 156.584 28.6742 156.59 28.5555 156.59ZM28.1164 155.841C28.2217 155.893 28.7652 155.999 29.9346 155.673C30.9079 155.401 32.5725 154.754 34.9757 153.209C38.675 150.831 44.875 145.816 53.7461 135.354C50.3196 137.552 42.6751 142.588 34.976 148.559C33.0561 150.047 31.1979 151.74 29.8778 153.201C28.3313 154.913 28.0827 155.671 28.1164 155.841Z" fill="#232323"/>
<path d="M98.362 160.792C95.7055 157.986 94.3245 156.514 94.3245 156.514C94.3245 156.514 96.6996 161.148 96.4621 166.496C96.2246 171.843 94.3245 170.773 93.9684 168.635C93.9684 168.635 93.2558 173.031 90.7621 167.327C90.7621 167.327 91.5933 171.605 87.5558 167.09C79.8264 158.445 73.5434 154.97 52.2277 154.246C45.8902 154.03 37.5228 153.329 31.5533 151.255C27.7463 149.933 26.7674 148.678 26.7559 148.672C56.9209 133.111 55.2805 133.957 55.4337 133.878C62.3806 134.412 78.8869 139.403 88.1494 145.582C97.4119 151.761 99.6682 157.227 100.618 159.722C101.568 162.218 100.499 163.05 98.362 160.792Z" fill="white"/>
<path d="M95.1376 170.732C94.6841 170.732 94.2628 170.376 93.9697 169.788C93.776 170.181 93.4838 170.536 93.0528 170.59C92.4321 170.669 91.7965 170.093 91.0888 168.795C91.0074 169.064 90.8615 169.296 90.6129 169.419C89.9249 169.761 88.9025 169.114 87.2986 167.32C83.6427 163.231 80.1286 160.085 74.8604 158.019C69.6575 155.978 62.8852 154.953 52.2157 154.591C46.0893 154.382 37.512 153.69 31.4399 151.581C27.9886 150.382 26.7903 149.233 26.5046 148.908C26.4679 148.869 26.4408 148.823 26.4254 148.771C26.4099 148.72 26.4066 148.666 26.4156 148.613C26.4246 148.561 26.4457 148.511 26.4772 148.468C26.5088 148.424 26.5499 148.389 26.5974 148.365C44.8732 138.937 55.0523 133.686 55.2596 133.579L55.2755 133.571C55.3324 133.542 55.3962 133.529 55.46 133.533C62.3229 134.062 78.9374 139.022 88.3405 145.295C97.9301 151.692 100.117 157.437 100.94 159.599C101.468 160.985 101.436 161.952 100.849 162.321C100.064 162.815 98.9273 161.891 98.1114 161.029C97.2054 160.072 96.3003 159.115 95.3962 158.156C96.0824 160.011 96.9577 163.102 96.8063 166.511C96.6547 169.926 95.8436 170.691 95.1899 170.73C95.1725 170.731 95.1551 170.732 95.1376 170.732ZM93.9681 168.289C94.0497 168.289 94.1287 168.318 94.191 168.371C94.2533 168.424 94.2948 168.497 94.3083 168.578C94.463 169.507 94.898 170.055 95.1485 170.041C95.4296 170.024 95.994 169.258 96.1173 166.48C96.3478 161.292 94.0408 156.717 94.0174 156.671C93.9794 156.597 93.9695 156.512 93.9894 156.431C94.0093 156.351 94.0577 156.28 94.1256 156.232C94.1936 156.184 94.2766 156.162 94.3593 156.171C94.442 156.179 94.5189 156.217 94.5758 156.278C94.5896 156.292 95.9869 157.782 98.6122 160.554C99.6389 161.639 100.293 161.856 100.482 161.737C100.648 161.632 100.745 161.026 100.296 159.845C99.4939 157.739 97.364 152.144 87.958 145.869C78.6895 139.686 62.3546 134.791 55.5044 134.229C54.5537 134.72 44.627 139.841 27.3436 148.756C27.8804 149.206 29.1228 150.045 31.6662 150.929C37.6569 153.009 46.1605 153.693 52.2393 153.901C73.2394 154.613 79.816 157.916 87.8127 166.859C89.7259 168.999 90.2528 168.827 90.3061 168.8C90.509 168.7 90.5352 167.974 90.4234 167.393C90.4072 167.309 90.4224 167.223 90.466 167.15C90.5095 167.077 90.5784 167.023 90.6595 166.997C90.7405 166.972 90.828 166.978 90.9052 167.013C90.9825 167.048 91.044 167.111 91.078 167.189C92.2434 169.854 92.8556 169.919 92.9665 169.905C93.26 169.868 93.5437 169.097 93.6279 168.579C93.6409 168.498 93.6822 168.425 93.7445 168.371C93.8067 168.318 93.8857 168.289 93.9675 168.289C93.9675 168.289 93.9678 168.289 93.9681 168.289Z" fill="#232323"/>
<mask id="mask6_96_4095" style="mask-type:luminance" maskUnits="userSpaceOnUse" x="26" y="133" width="75" height="38">
<path d="M98.362 160.792C95.7055 157.986 94.3245 156.514 94.3245 156.514C94.3245 156.514 96.6996 161.148 96.4621 166.496C96.2246 171.843 94.3245 170.773 93.9684 168.635C93.9684 168.635 93.2558 173.031 90.7621 167.327C90.7621 167.327 91.5933 171.605 87.5559 167.09C79.8264 158.445 73.5434 154.97 52.2277 154.246C45.3283 154.011 40.2434 153.364 36.5147 152.588C36.4565 152.576 36.4006 152.564 36.3437 152.552C34.3902 152.14 32.8157 151.693 31.5533 151.255C31.1045 151.1 30.6602 150.932 30.221 150.751C27.4957 149.626 26.7559 148.672 26.7559 148.672L44.8534 139.335L47.6927 137.871L55.4162 133.886C55.428 133.88 55.434 133.878 55.434 133.878C62.3808 134.412 78.8872 139.403 88.1497 145.582C97.4121 151.761 99.6684 157.227 100.618 159.722C101.568 162.218 100.499 163.05 98.362 160.792Z" fill="white"/>
</mask>
<g mask="url(#mask6_96_4095)">
<path d="M90.9579 169.395C90.8664 169.395 90.7787 169.359 90.714 169.294C90.6493 169.23 90.613 169.142 90.613 169.05C90.613 165.553 86.8788 160.047 84.525 157.397C84.4943 157.363 84.4705 157.324 84.4552 157.281C84.4398 157.238 84.4331 157.192 84.4355 157.146C84.4379 157.101 84.4493 157.056 84.4691 157.015C84.4889 156.974 84.5167 156.937 84.5508 156.907C84.5849 156.876 84.6247 156.853 84.6679 156.838C84.7111 156.823 84.7568 156.817 84.8023 156.82C84.8479 156.823 84.8924 156.835 84.9333 156.855C84.9742 156.876 85.0106 156.904 85.0405 156.938C86.7823 158.899 91.3028 164.897 91.3028 169.05C91.3028 169.096 91.2939 169.141 91.2765 169.182C91.2592 169.224 91.2338 169.262 91.2018 169.294C91.1697 169.326 91.1317 169.352 91.0899 169.369C91.048 169.386 91.0032 169.395 90.9579 169.395ZM93.927 170.465L93.9163 170.465C93.8249 170.462 93.7383 170.423 93.6756 170.356C93.6129 170.29 93.5792 170.201 93.582 170.109C93.7555 164.382 92.0314 159.285 88.3113 154.529C88.2834 154.493 88.2628 154.452 88.2506 154.408C88.2385 154.365 88.2351 154.319 88.2405 154.274C88.246 154.229 88.2603 154.186 88.2826 154.146C88.3048 154.107 88.3347 154.072 88.3703 154.044C88.406 154.016 88.4468 153.996 88.4905 153.983C88.5341 153.971 88.5797 153.968 88.6246 153.973C88.6696 153.979 88.713 153.993 88.7525 154.015C88.7919 154.038 88.8266 154.068 88.8545 154.103C92.6781 158.992 94.4501 164.235 94.2715 170.13C94.2687 170.22 94.2312 170.305 94.1669 170.367C94.1026 170.43 94.0166 170.465 93.927 170.465ZM95.5896 159.176C95.5276 159.176 95.4667 159.16 95.4133 159.128C95.36 159.096 95.3161 159.051 95.2864 158.996C95.01 158.487 94.736 157.977 94.4647 157.465C93.4091 155.482 92.4976 153.77 91.2841 152.276C91.2555 152.24 91.2341 152.2 91.2212 152.157C91.2082 152.113 91.204 152.068 91.2087 152.023C91.2133 151.977 91.2268 151.934 91.2484 151.894C91.2699 151.854 91.2991 151.819 91.3343 151.79C91.3694 151.762 91.4099 151.74 91.4533 151.727C91.4967 151.714 91.5422 151.71 91.5873 151.715C91.6324 151.719 91.676 151.733 91.7159 151.754C91.7557 151.776 91.7909 151.805 91.8195 151.84C93.0751 153.387 94.0013 155.126 95.0735 157.141C95.336 157.634 95.6075 158.144 95.8922 158.666C95.9209 158.718 95.9354 158.778 95.9343 158.837C95.9332 158.897 95.9166 158.956 95.8861 159.007C95.8556 159.059 95.8122 159.101 95.7602 159.131C95.7082 159.161 95.6494 159.176 95.5896 159.176Z" fill="#232323"/>
</g>
<path d="M53.6523 131.62C58.4023 119.856 65.7648 81 53.1772 77.9106C40.5897 74.821 15.296 104.171 21.2334 143.027C21.2334 143.027 19.6304 144.394 20.7584 147.186C21.9447 150.123 25.4491 154.256 27.8835 156.098C26.399 154.256 44.9241 139.403 55.4335 133.878C55.4335 133.878 55.9679 132.511 53.6523 131.62Z" fill="white"/>
<path d="M27.8835 156.443C27.8106 156.443 27.7375 156.42 27.6755 156.373C25.2387 154.53 21.6672 150.356 20.4388 147.316C19.4258 144.808 20.4628 143.349 20.8665 142.907C19.0331 130.725 20.1487 118.339 24.0953 107.077C27.4509 97.5007 32.6859 89.1261 38.8362 83.4956C44.0149 78.7545 49.2722 76.5966 53.2597 77.5755C55.312 78.0792 56.9554 79.5131 58.1445 81.8374C59.8873 85.2439 61.568 92.42 59.6777 107.262C58.5646 116.002 56.2853 125.86 54.0985 131.432C54.901 131.795 55.4329 132.264 55.6816 132.828C55.9561 133.451 55.7761 133.949 55.7549 134.004C55.7246 134.081 55.6675 134.145 55.5942 134.183C45.2237 139.636 28.7255 152.985 28.1554 155.741C28.1357 155.835 28.1481 155.876 28.1521 155.882C28.193 155.932 28.2186 155.994 28.2261 156.058C28.2337 156.123 28.2227 156.188 28.1946 156.247C28.1665 156.306 28.1224 156.355 28.0674 156.39C28.0123 156.425 27.9485 156.443 27.8835 156.443ZM51.2623 78.0323C47.7786 78.0323 43.5327 80.1312 39.3018 84.0047C33.2339 89.5598 28.0647 97.8347 24.7462 107.305C20.8183 118.514 19.7215 130.849 21.5745 142.975C21.5834 143.033 21.5773 143.093 21.5568 143.148C21.5362 143.203 21.5019 143.252 21.4572 143.29C21.4015 143.339 20.0649 144.548 21.0782 147.057C22.1757 149.773 25.2198 153.434 27.5421 155.384C28.4074 152.98 35.6657 147.105 37.9278 145.316C43.9815 140.531 50.5566 136.072 55.1358 133.645C55.1743 133.357 55.1196 132.554 53.5287 131.942C53.486 131.926 53.447 131.901 53.414 131.869C53.3809 131.837 53.3545 131.799 53.3363 131.757C53.3181 131.715 53.3084 131.67 53.3078 131.624C53.3072 131.579 53.3157 131.533 53.3328 131.491C55.5379 126.029 57.8657 116.03 58.9935 107.174C60.451 95.731 59.9313 86.8445 57.5305 82.1517C56.4367 80.0137 54.9445 78.6995 53.0953 78.2456C52.5132 78.1028 51.9003 78.0323 51.2623 78.0323ZM67.3549 155.624C68.5615 150.496 71.2475 144.332 74.5073 139.392L72.8162 138.275L68.0662 135.136C67.7832 135.565 67.5061 135.998 67.235 136.435C63.6915 142.143 60.9045 148.887 59.6636 154.66L67.3549 155.624Z" fill="#232323"/>
<path d="M75.8102 141.41C76.6184 138.968 74.4381 136.048 70.9405 134.889C67.4428 133.731 63.9522 134.771 63.144 137.214C62.3358 139.657 64.5161 142.576 68.0137 143.735C71.5114 144.894 75.002 143.853 75.8102 141.41Z" fill="#232323"/>
<mask id="mask7_96_4095" style="mask-type:luminance" maskUnits="userSpaceOnUse" x="59" y="135" width="16" height="24">
<path d="M66.8055 158.643L59.1431 157.712C59.9615 150.971 63.464 142.11 68.0663 135.136L74.5073 139.392C70.5753 145.35 67.4801 153.087 66.8055 158.643Z" fill="white"/>
</mask>
<g mask="url(#mask7_96_4095)">
<path d="M70.9332 144.784C69.9409 144.784 68.8897 144.619 67.8395 144.271C65.9929 143.659 64.4204 142.578 63.4115 141.227C62.3795 139.846 62.0561 138.345 62.5005 137.002C62.9447 135.66 64.0992 134.649 65.7511 134.156C67.3667 133.675 69.2731 133.747 71.1195 134.358C74.9677 135.633 77.3628 138.894 76.4584 141.627C75.801 143.614 73.5771 144.784 70.9332 144.784ZM68.009 134.416C67.276 134.416 66.5693 134.513 65.9153 134.708C64.4486 135.145 63.4296 136.024 63.0461 137.183C62.6626 138.342 62.9559 139.656 63.8719 140.883C64.8111 142.141 66.2841 143.15 68.0202 143.725C71.5674 144.9 75.108 143.878 75.9129 141.446C76.7175 139.014 74.4862 136.08 70.9388 134.904C69.9579 134.58 68.9614 134.416 68.009 134.416Z" fill="white"/>
</g>
<path d="M75.8489 140.659C76.542 138.564 74.3513 135.954 70.956 134.829C67.5606 133.704 64.2463 134.491 63.5532 136.585C62.8602 138.68 65.0508 141.29 68.4462 142.415C71.8416 143.539 75.1559 142.753 75.8489 140.659Z" fill="white"/>
<path d="M71.4745 143.269C70.484 143.269 69.4148 143.101 68.3406 142.745C64.7701 141.562 62.4769 138.751 63.2287 136.479C63.9805 134.207 67.4968 133.321 71.0675 134.504C72.7696 135.068 74.2382 136.012 75.2029 137.161C76.2069 138.357 76.5538 139.639 76.1794 140.77C75.6537 142.358 73.7766 143.269 71.4745 143.269ZM67.8851 134.66C65.9018 134.66 64.3142 135.394 63.8834 136.696C63.2512 138.607 65.3479 141.026 68.5574 142.09C71.7669 143.153 74.8923 142.464 75.5246 140.553C75.8208 139.658 75.5189 138.611 74.6746 137.605C73.7908 136.552 72.4329 135.684 70.8505 135.16C69.8278 134.821 68.813 134.66 67.8851 134.66Z" fill="#232323"/>
<path d="M69.0002 140.875C68.9445 140.875 68.8897 140.861 68.8403 140.835C68.791 140.81 68.7486 140.772 68.7169 140.726C68.6851 140.681 68.6649 140.628 68.658 140.573C68.651 140.517 68.6576 140.461 68.677 140.409L69.5439 138.084C69.5599 138.041 69.5843 138.002 69.6158 137.968C69.6472 137.935 69.685 137.908 69.727 137.889C69.7689 137.871 69.8142 137.861 69.86 137.86C69.9059 137.859 69.9515 137.867 69.9942 137.884L73.5895 139.312C73.6745 139.345 73.7427 139.411 73.7789 139.495C73.8152 139.58 73.8166 139.675 73.7829 139.76C73.7491 139.845 73.683 139.913 73.599 139.949C73.515 139.985 73.4201 139.987 73.3351 139.953L70.067 138.656L69.3231 140.65C69.2986 140.716 69.2545 140.773 69.1968 140.813C69.1391 140.853 69.0705 140.875 69.0002 140.875Z" fill="#232323"/>
<mask id="mask8_96_4095" style="mask-type:luminance" maskUnits="userSpaceOnUse" x="20" y="70" width="119" height="87">
<path d="M137.786 112.145C131.714 103.118 122.824 94.8432 117.243 92.1103C116.182 91.5905 115.143 91.7165 114.512 92.3479C110.356 83.7924 95.0368 66.4438 79.0055 71.5533C79.0055 71.5533 77.1055 70.3651 75.3242 70.2462C73.0344 70.0935 57.5117 72.1475 57.5117 72.1475C55.4237 74.9966 53.4129 77.0852 52.6891 77.8096C39.9493 75.5724 15.3717 104.667 21.2334 143.027C21.2334 143.027 19.6304 144.394 20.7584 147.186C21.9447 150.123 25.4491 154.256 27.8835 156.098C26.4062 154.265 44.7477 139.545 55.2824 133.958C57.4965 135.937 60.2603 137.415 63.6866 138.215C78.58 141.692 97.6749 136.73 105.394 132.452C105.394 132.452 108.337 129.184 108.218 123.599C110.293 125.836 119.398 128.877 127.849 123.846C132.681 121.223 136.197 117.434 137.741 115.266C138.404 114.335 138.424 113.093 137.786 112.145Z" fill="white"/>
</mask>
<g mask="url(#mask8_96_4095)">
<path d="M77.1977 84.1178C75.6266 84.1178 73.2774 82.7782 71.1462 81.5629L70.9974 81.4781C68.096 79.8245 60.7222 75.9219 54.928 75.4024C54.8368 75.3942 54.7527 75.3502 54.694 75.28C54.6354 75.2098 54.607 75.1191 54.6151 75.0279C54.6236 74.9369 54.6677 74.8528 54.7378 74.7942C54.8079 74.7355 54.8984 74.707 54.9895 74.7149C57.4429 74.9349 62.8294 76.0281 71.3388 80.8783L71.4877 80.9632C73.6738 82.2098 76.9772 84.0934 77.9154 83.2014C78.5577 82.5908 78.5658 80.3589 74.957 73.1939C74.9356 73.1533 74.9225 73.1089 74.9185 73.0632C74.9145 73.0175 74.9196 72.9715 74.9335 72.9278C74.9475 72.8841 74.97 72.8436 74.9997 72.8088C75.0295 72.7739 75.0659 72.7453 75.1068 72.7246C75.1478 72.704 75.1924 72.6917 75.2381 72.6885C75.2838 72.6853 75.3297 72.6913 75.3731 72.7061C75.4165 72.7209 75.4565 72.7441 75.4908 72.7746C75.5251 72.805 75.553 72.8419 75.5729 72.8833C79.6933 81.064 79.1544 82.9756 78.3906 83.7017C78.0843 83.993 77.6772 84.1178 77.1977 84.1178ZM84.8961 79.5508C84.8329 79.5508 84.7708 79.5335 84.7168 79.5007C84.6628 79.4679 84.6188 79.4208 84.5897 79.3647C80.0415 70.6039 75.8328 70.5198 75.7594 70.5198H75.7544C75.664 70.5198 75.5772 70.4844 75.5125 70.4212C75.4478 70.358 75.4104 70.2719 75.4084 70.1815C75.4063 70.0905 75.4403 70.0025 75.503 69.9366C75.5656 69.8707 75.6517 69.8322 75.7426 69.8297C75.931 69.8252 80.4067 69.8102 85.2017 79.0465C85.229 79.099 85.2423 79.1578 85.2404 79.217C85.2384 79.2762 85.2213 79.3339 85.1906 79.3846C85.1599 79.4353 85.1167 79.4772 85.0651 79.5063C85.0135 79.5354 84.9553 79.5507 84.8961 79.5508ZM128.008 125.43C127.926 125.43 127.846 125.4 127.784 125.347C127.722 125.294 127.68 125.22 127.667 125.139C126.487 117.696 121.924 102.86 114.194 92.495C114.14 92.4216 114.118 92.3299 114.131 92.2399C114.144 92.1498 114.193 92.0687 114.266 92.0142C114.339 91.9598 114.43 91.9363 114.52 91.949C114.61 91.9618 114.692 92.0096 114.747 92.0822C122.552 102.548 127.157 117.52 128.349 125.031C128.356 125.08 128.353 125.13 128.34 125.178C128.326 125.226 128.302 125.271 128.27 125.309C128.238 125.347 128.197 125.377 128.152 125.398C128.107 125.419 128.057 125.43 128.008 125.43ZM20.8588 143.66C20.7877 143.66 20.7183 143.638 20.6601 143.597C20.6019 143.556 20.5578 143.498 20.5338 143.431C20.5099 143.364 20.5072 143.292 20.5262 143.223C20.5452 143.154 20.5849 143.093 20.6399 143.048C24.6879 139.727 30.3985 136.697 36.7196 134.517C41.8291 132.755 46.9617 131.661 51.4541 131.36C41.0887 129.329 29.8892 132.601 29.7683 132.637C29.6807 132.663 29.5862 132.654 29.5058 132.61C29.4253 132.566 29.3655 132.493 29.3394 132.405C29.3133 132.317 29.3231 132.223 29.3666 132.142C29.4101 132.062 29.4838 132.002 29.5715 131.976C29.6048 131.966 32.9402 130.982 37.6008 130.409C41.9079 129.881 48.2676 129.604 54.1043 131.288C54.1842 131.311 54.2531 131.363 54.2984 131.432C54.3436 131.502 54.3621 131.586 54.3505 131.668C54.3388 131.751 54.2979 131.826 54.2351 131.881C54.1723 131.935 54.0919 131.965 54.0088 131.965C53.9794 131.963 53.9416 131.965 53.908 131.965C48.9605 131.965 42.9415 133.102 36.9445 135.17C30.6986 137.324 25.0636 140.311 21.0773 143.582C21.0158 143.633 20.9385 143.66 20.8588 143.66Z" fill="#232323"/>
</g>
<mask id="mask9_96_4095" style="mask-type:luminance" maskUnits="userSpaceOnUse" x="20" y="70" width="119" height="87">
<path d="M137.786 112.145C131.714 103.118 122.824 94.8432 117.243 92.1103C116.182 91.5905 115.143 91.7165 114.512 92.3479C110.356 83.7924 95.0368 66.4438 79.0055 71.5533C79.0055 71.5533 77.1055 70.3651 75.3242 70.2462C73.0344 70.0935 57.5117 72.1475 57.5117 72.1475C55.4237 74.9966 53.4129 77.0852 52.6891 77.8096C39.9493 75.5724 15.3717 104.667 21.2334 143.027C21.2334 143.027 19.6304 144.394 20.7584 147.186C21.9447 150.123 25.4491 154.256 27.8835 156.098C26.4062 154.265 44.7477 139.545 55.2824 133.958C57.4965 135.937 60.2603 137.415 63.6866 138.215C78.58 141.692 97.6749 136.73 105.394 132.452C105.394 132.452 108.337 129.184 108.218 123.599C110.293 125.836 119.398 128.877 127.849 123.846C132.681 121.223 136.197 117.434 137.741 115.266C138.404 114.335 138.424 113.093 137.786 112.145Z" fill="white"/>
</mask>
<g mask="url(#mask9_96_4095)">
<path d="M119.457 112.596C119.373 112.596 119.291 112.565 119.228 112.508C119.165 112.452 119.124 112.374 119.115 112.29C117.946 101.882 114.188 92.5114 114.151 92.418C114.133 92.3758 114.123 92.3305 114.123 92.2847C114.123 92.2389 114.132 92.1935 114.149 92.1511C114.167 92.1088 114.192 92.0704 114.225 92.0381C114.257 92.0058 114.296 91.9803 114.338 91.9631C114.381 91.9459 114.426 91.9373 114.472 91.9379C114.518 91.9384 114.563 91.9481 114.605 91.9663C114.647 91.9845 114.685 92.0109 114.717 92.044C114.748 92.077 114.773 92.116 114.79 92.1588C114.828 92.2531 118.621 101.711 119.8 112.213C119.806 112.261 119.801 112.31 119.786 112.356C119.771 112.403 119.747 112.445 119.715 112.481C119.682 112.518 119.643 112.547 119.598 112.566C119.554 112.586 119.506 112.596 119.457 112.596Z" fill="#232323"/>
</g>
<path d="M82.4866 35.5641C81.3594 35.0101 79.6413 34.8673 78.1068 35.729C76.4647 30.9249 70.0725 31.9671 69.3081 35.6805C64.7663 32.419 59.4652 37.557 61.4076 41.5649C62.1206 43.0363 63.2012 45.6811 62.6037 48.2296C64.8014 49.1506 69.1259 54.7804 69.1259 54.7804C69.1259 54.7804 76.2472 44.3028 80.0903 43.8455C86.1334 43.1262 85.4599 37.0252 82.4866 35.5641Z" fill="#232323"/>
<mask id="mask10_96_4095" style="mask-type:luminance" maskUnits="userSpaceOnUse" x="60" y="32" width="25" height="23">
<path d="M82.4866 35.5641C81.3594 35.0101 79.6413 34.8673 78.1068 35.729C76.4648 30.9249 70.0725 31.9671 69.3081 35.6805C64.7663 32.419 59.4652 37.557 61.4076 41.5649C62.1206 43.0363 63.2554 45.5827 62.6577 48.1311C64.8555 49.0521 69.1257 54.7804 69.1257 54.7804C69.1257 54.7804 76.2471 44.3028 80.0902 43.8455C86.1334 43.1262 85.46 37.0252 82.4866 35.5641Z" fill="white"/>
</mask>
<g mask="url(#mask10_96_4095)">
<path d="M75.9272 38.0036C75.8688 38.0035 75.8113 37.9886 75.7602 37.9602C75.7091 37.9318 75.666 37.8909 75.635 37.8413C75.604 37.7917 75.5861 37.7351 75.583 37.6767C75.5799 37.6183 75.5916 37.56 75.6172 37.5074C76.8096 35.0547 78.8771 34.566 79.7107 34.4697C79.8016 34.4594 79.8928 34.4856 79.9644 34.5424C80.036 34.5993 80.0822 34.6822 80.0929 34.773C80.0981 34.8181 80.0943 34.8637 80.0819 34.9073C80.0695 34.9509 80.0486 34.9916 80.0204 35.0271C79.9923 35.0626 79.9574 35.0922 79.9178 35.1142C79.8782 35.1362 79.8347 35.1502 79.7897 35.1554C79.0691 35.2386 77.2805 35.6638 76.2375 37.8094C76.2092 37.8676 76.1651 37.9167 76.1103 37.9511C76.0554 37.9854 75.992 38.0036 75.9272 38.0036Z" fill="white"/>
</g>
<path d="M86.2459 58.1308C86.4245 59.4648 85.7868 60.8971 84.4218 61.7623C80.8678 64.0148 75.997 63.1511 75.997 63.1511C75.997 63.1511 74.8492 66.8003 75.5618 72.9792C75.5618 72.9792 68.5293 75.147 57.5117 72.1475C57.5117 72.1475 61.3118 66.8003 63.1602 57.6438C60.5578 57.4341 57.5322 54.9726 57.9802 51.4354C58.2359 49.4177 60.2967 47.9444 62.374 48.1604C64.5073 48.3822 65.9939 50.0451 67.7114 51.7224C69.6532 53.6186 70.1162 51.9257 70.7382 49.7899C71.1378 48.4181 71.6018 46.864 72.5659 45.961C74.7451 43.919 80.0901 43.8456 80.0901 43.8456C80.0901 43.8456 80.153 44.5393 80.293 45.4067C80.4781 46.5535 80.8005 48.0027 81.292 48.5517C82.1558 49.5147 82.9452 49.2898 83.0135 49.9522C83.072 50.52 82.4782 51.2507 82.1292 51.5738C82.6236 55.444 85.8294 55.0176 86.2459 58.1308Z" fill="white"/>
<path d="M68.8409 74.0917C65.8553 74.0917 61.9857 73.723 57.4212 72.4804C57.3676 72.4658 57.3184 72.4384 57.2776 72.4007C57.2369 72.3629 57.2058 72.3159 57.1871 72.2636C57.1684 72.2113 57.1626 72.1552 57.1702 72.1002C57.1778 72.0451 57.1986 71.9927 57.2307 71.9474C57.2677 71.8952 60.9098 66.6904 62.7469 57.9416C61.2952 57.7132 59.8367 56.8669 58.8658 55.6708C58.1675 54.8106 57.3876 53.37 57.638 51.3918C57.914 49.2136 60.0989 47.577 62.4098 47.8169C64.4648 48.0306 65.929 49.4775 67.4792 51.0092C67.6354 51.1636 67.7929 51.3193 67.9525 51.4752C68.505 52.0147 68.9454 52.2602 69.2263 52.1867C69.7192 52.057 70.0578 50.8934 70.3853 49.7681L70.4072 49.6931C70.797 48.3553 71.2821 46.6905 72.3304 45.7088C74.581 43.5997 79.8618 43.5034 80.0855 43.5003C80.1726 43.4983 80.2571 43.5297 80.3218 43.5881C80.3866 43.6464 80.4265 43.7273 80.4336 43.8142C80.4343 43.8211 80.4974 44.5072 80.6337 45.3514C80.8774 46.8613 81.2109 47.9437 81.549 48.3211C81.9207 48.7356 82.265 48.8963 82.5686 49.0383C82.912 49.1989 83.3014 49.3809 83.3566 49.9165C83.4226 50.5575 82.8955 51.2855 82.4949 51.698C82.7697 53.4834 83.6548 54.2199 84.5903 54.9981C85.4669 55.7274 86.3734 56.4816 86.5878 58.0849C86.7943 59.6275 86.0351 61.1482 84.6064 62.0538C81.4623 64.0465 77.405 63.691 76.2499 63.5379C76.0099 64.5012 75.3202 67.8733 75.9045 72.9396C75.9137 73.0197 75.8946 73.1005 75.8506 73.1679C75.8065 73.2354 75.7403 73.2853 75.6633 73.309C75.4932 73.3615 73.0426 74.0917 68.8409 74.0917ZM58.0633 71.9374C67.3982 74.3803 73.8143 73.064 75.1862 72.7224C74.5419 66.7213 75.6212 63.1969 75.6682 63.0475C75.6933 62.9675 75.7466 62.8994 75.8182 62.8559C75.8898 62.8124 75.9748 62.7966 76.0573 62.8113C76.1046 62.8197 80.8415 63.6231 84.2372 61.4707C85.4359 60.711 86.0745 59.4488 85.9041 58.1766C85.7253 56.8402 84.995 56.2326 84.1493 55.529C83.1724 54.7164 82.0653 53.7953 81.7871 51.6173C81.7801 51.5628 81.7863 51.5074 81.805 51.4557C81.8238 51.404 81.8546 51.3576 81.8949 51.3202C82.241 51 82.7104 50.3749 82.6704 49.9875C82.6576 49.863 82.6273 49.8277 82.2766 49.6639C81.9493 49.5109 81.5013 49.3015 81.0353 48.7821C80.5926 48.2877 80.2284 47.1706 79.9525 45.4616C79.8851 45.0432 79.8278 44.6232 79.7804 44.202C78.6206 44.2563 74.5627 44.5626 72.8017 46.2128C71.8913 47.0654 71.4354 48.6296 71.0693 49.8865L71.0475 49.9612C70.6315 51.3907 70.2722 52.6253 69.4016 52.8544C68.8508 52.9991 68.2372 52.7179 67.4705 51.9694C67.31 51.8126 67.1516 51.656 66.9943 51.5007C65.4693 49.9937 64.1524 48.6923 62.3384 48.5037C60.4235 48.305 58.5483 49.6948 58.3223 51.4787C58.1024 53.2149 58.7876 54.4801 59.401 55.2359C60.3433 56.3966 61.7944 57.1875 63.1879 57.2998C63.2364 57.3037 63.2836 57.3179 63.3263 57.3414C63.369 57.365 63.4062 57.3973 63.4355 57.4362C63.4649 57.4752 63.4856 57.5199 63.4964 57.5674C63.5072 57.615 63.5078 57.6643 63.4981 57.7121C61.9428 65.4178 58.9719 70.5091 58.0633 71.9374Z" fill="#232323"/>
<mask id="mask11_96_4095" style="mask-type:luminance" maskUnits="userSpaceOnUse" x="57" y="43" width="30" height="31">
<path d="M86.2459 58.1308C86.4245 59.4648 85.7868 60.8971 84.4218 61.7623C80.8678 64.0148 75.997 63.1511 75.997 63.1511C75.997 63.1511 74.8492 66.8003 75.5618 72.9792C75.5618 72.9792 68.5293 75.147 57.5117 72.1475C57.5117 72.1475 61.3118 66.8003 63.1602 57.6438C60.5578 57.4341 57.5322 54.9726 57.9802 51.4354C58.2359 49.4177 60.2967 47.9444 62.374 48.1604C64.5073 48.3822 65.9939 50.0451 67.7114 51.7224C69.6532 53.6186 70.1162 51.9257 70.7382 49.7899C71.1378 48.4181 71.6018 46.864 72.5659 45.961C74.7451 43.919 80.0901 43.8456 80.0901 43.8456C80.0901 43.8456 80.153 44.5393 80.293 45.4067C80.4781 46.5535 80.8005 48.0027 81.292 48.5517C82.1558 49.5147 82.9452 49.2898 83.0135 49.9522C83.072 50.52 82.4782 51.2507 82.1292 51.5738C82.6236 55.444 85.8294 55.0176 86.2459 58.1308Z" fill="white"/>
</mask>
<g mask="url(#mask11_96_4095)">
<path d="M63.7072 57.9663C62.8064 57.9663 62.1803 57.8387 62.1309 57.8282C62.0414 57.8094 61.963 57.7557 61.913 57.6791C61.863 57.6024 61.8455 57.509 61.8643 57.4194C61.8831 57.3299 61.9367 57.2514 62.0133 57.2014C62.0899 57.1514 62.1833 57.1339 62.2728 57.1527C62.2944 57.1573 64.4577 57.5938 66.4976 56.771C66.5396 56.754 66.5846 56.7455 66.6299 56.7459C66.6752 56.7463 66.7199 56.7556 66.7616 56.7734C66.8033 56.7911 66.8411 56.8169 66.8728 56.8493C66.9045 56.8817 66.9296 56.92 66.9464 56.9621C66.9806 57.0469 66.9798 57.1419 66.944 57.2262C66.9082 57.3104 66.8404 57.3769 66.7556 57.4112C65.6648 57.8511 64.5623 57.9663 63.7072 57.9663ZM76.2383 62.8569C76.2383 62.8569 73.3092 62.2282 71.4092 60.3271C70.7916 60.7381 70.4998 64.3113 74.0697 65.7913C77.8014 67.3384 76.2383 62.8569 76.2383 62.8569Z" fill="#232323"/>
</g>
<path d="M73.1709 46.3964C73.681 44.142 76.2413 43.1644 77.6051 44.2757C77.9459 44.5533 77.92 45.0829 77.5535 45.326C76.9796 45.7066 76.2404 46.0474 75.0865 46.9093C74.8968 47.0534 74.2508 47.5564 74.172 47.5746L73.7349 47.6751C73.6697 47.6901 73.6021 47.6921 73.5361 47.681C73.4701 47.6699 73.4069 47.6459 73.3502 47.6104C73.2934 47.5748 73.2442 47.5284 73.2054 47.4738C73.1666 47.4192 73.1389 47.3575 73.1239 47.2923C73.095 47.1667 73.0875 46.7783 73.1709 46.3964ZM75.8802 48.9587C76.4398 48.6949 77.7969 48.0931 78.9541 47.1127C78.9927 47.0799 79.0374 47.0551 79.0856 47.0398C79.1338 47.0244 79.1846 47.0187 79.235 47.0231C79.2854 47.0275 79.3344 47.0419 79.3792 47.0654C79.424 47.0889 79.4637 47.121 79.4961 47.16C79.8477 47.5815 80.2954 48.3626 79.4213 48.9292C78.3473 49.6255 76.3688 49.7035 75.8385 49.2896C75.7246 49.2006 75.7495 49.0204 75.8802 48.9587ZM81.3534 55.249C81.1965 55.4338 80.9923 55.5707 80.7787 55.6699C80.5652 55.7658 80.3381 55.8279 80.1055 55.8539C79.6453 55.907 79.1728 55.8439 78.7295 55.6307C78.5174 55.523 78.3216 55.3858 78.148 55.2232C77.9786 55.0574 77.8274 54.8709 77.7158 54.6613C77.4873 54.2481 77.3935 53.7516 77.4979 53.2944C77.5114 53.2345 77.5459 53.1813 77.5951 53.1446C77.6443 53.1078 77.705 53.0898 77.7662 53.0938C77.8275 53.0978 77.8853 53.1235 77.9294 53.1664C77.9734 53.2092 78.0007 53.2663 78.0063 53.3275L78.0075 53.3414C78.0387 53.6771 78.1569 53.9989 78.3502 54.275C78.4471 54.4083 78.5544 54.5338 78.6813 54.6384C78.8046 54.7464 78.9413 54.8379 79.0881 54.9108C79.3664 55.0517 79.7138 55.118 80.0523 55.1178C80.3928 55.1146 80.7291 55.0404 81.0097 54.8695L81.0227 54.8616C81.075 54.8296 81.137 54.8173 81.1976 54.827C81.2581 54.8366 81.3133 54.8675 81.3531 54.9142C81.3929 54.9609 81.4149 55.0202 81.4149 55.0815C81.415 55.1429 81.3932 55.2023 81.3534 55.249ZM65.3396 54.5599C65.2691 54.5599 65.2003 54.5383 65.1425 54.4979C65.0846 54.4576 65.0405 54.4004 65.0161 54.3342C64.5028 52.9434 63.6582 52.0245 62.5053 51.603C61.6514 51.2909 60.955 51.3791 60.9481 51.38C60.8582 51.3906 60.7678 51.3653 60.6963 51.3098C60.6248 51.2542 60.5781 51.1727 60.566 51.083C60.554 50.9932 60.5777 50.9023 60.6321 50.8299C60.6864 50.7575 60.767 50.7093 60.8565 50.6958C60.8905 50.6915 64.2576 50.2861 65.6633 54.0949C65.6826 54.1471 65.6889 54.2032 65.6819 54.2584C65.6749 54.3136 65.6546 54.3663 65.6228 54.412C65.591 54.4577 65.5487 54.495 65.4993 54.5207C65.45 54.5465 65.3953 54.5599 65.3396 54.5599Z" fill="#232323"/>
<path d="M105.746 139.194C102.329 140.815 98.7942 142.008 95.3373 142.885L93.0698 136.625C97.1604 135.586 100.891 134.188 103.451 133.046L105.746 139.194Z" fill="white"/>
<path d="M103.06 133.97L104.876 138.838C102.083 140.118 99.0256 141.2 95.772 142.059L93.9763 137.102C97.0349 136.284 100.271 135.168 103.06 133.97ZM103.451 133.046C100.891 134.188 97.1605 135.586 93.0698 136.625L95.3373 142.885C98.794 142.008 102.329 140.815 105.746 139.194L103.451 133.046Z" fill="#232323"/>
<path d="M75.562 72.9792C75.562 72.9792 81.262 72.8604 84.8245 77.7322C84.8245 77.7322 103.11 99.771 108.88 122.461C108.996 122.917 109.028 123.39 108.98 123.859C108.794 125.665 107.982 129.38 106.074 132.528C105.912 132.796 105.553 132.886 105.281 132.731L95.9405 128.034C95.6706 127.881 95.4449 127.66 95.2856 127.394C95.1263 127.127 95.0387 126.824 95.0313 126.514C94.9267 122.039 93.7873 102.553 80.5456 79.2655C80.5456 79.2655 78.3639 79.4891 78.1745 78.9205C77.3433 76.4252 75.562 72.9792 75.562 72.9792Z" fill="#48847A" fill-opacity="0.5"/>
<path d="M80.4895 79.9193C80.402 79.9193 80.3178 79.886 80.2539 79.8263C80.19 79.7665 80.1512 79.6846 80.1453 79.5973C80.1394 79.51 80.1669 79.4237 80.2223 79.3559C80.2776 79.2881 80.3566 79.2438 80.4433 79.2321C82.9374 78.8918 84.7889 77.6385 84.8073 77.626C84.8827 77.5741 84.9756 77.5544 85.0656 77.5711C85.1555 77.5878 85.2351 77.6396 85.2869 77.7151C85.3387 77.7905 85.3584 77.8835 85.3417 77.9735C85.325 78.0635 85.2733 78.1431 85.1979 78.1949C85.1176 78.2502 83.1997 79.5527 80.5365 79.9162C80.5209 79.9182 80.5052 79.9192 80.4895 79.9193Z" fill="white"/>
</g>
<g clip-path="url(#clip1_96_4095)">
<path d="M211.811 40.2794C206.276 34.9405 199.551 32.9322 196.792 35.7935L192.544 40.1975C189.785 43.0583 192.035 49.7067 197.57 55.0448C203.105 60.3828 209.83 62.3918 212.589 59.5305L216.837 55.1265C219.596 52.2655 217.346 45.618 211.811 40.2794Z" fill="#48847A" fill-opacity="0.5"/>
<mask id="mask12_96_4095" style="mask-type:luminance" maskUnits="userSpaceOnUse" x="191" y="34" width="28" height="27">
<path d="M211.811 40.2794C206.276 34.9405 199.551 32.9322 196.792 35.7935L192.544 40.1975C189.785 43.0583 192.035 49.7067 197.57 55.0448C203.105 60.3828 209.83 62.3918 212.589 59.5305L216.837 55.1265C219.596 52.2655 217.346 45.618 211.811 40.2794Z" fill="white"/>
</mask>
<g mask="url(#mask12_96_4095)">
<path d="M195.777 43.3688C195.64 43.0313 195.516 42.6893 195.403 42.3432C194.376 39.1862 194.528 36.3981 196.103 34.7638L196.813 35.4482C195.503 36.807 195.432 39.2445 196.34 42.0376C197.284 44.9383 199.319 47.9985 202.074 50.6545C204.829 53.3104 207.96 55.2354 210.892 56.0738C213.717 56.8806 215.994 56.5766 217.305 55.2181L218.014 55.9025C216.439 57.5367 213.813 57.9336 210.621 57.0219C207.537 56.1408 204.258 54.1318 201.389 51.3657C198.841 48.9062 196.878 46.1023 195.777 43.3688Z" fill="#232323"/>
<path d="M213.758 57.7272C212.776 57.7272 211.702 57.5656 210.559 57.239C207.44 56.348 204.127 54.3199 201.232 51.5281C198.651 49.0367 196.692 46.2445 195.567 43.4533C195.429 43.111 195.302 42.7641 195.188 42.4133C194.086 39.0258 194.353 36.2535 195.94 34.6071L196.097 34.4445L197.132 35.4426L196.975 35.6051C195.774 36.8503 195.625 39.1097 196.555 41.9679C197.487 44.8346 199.503 47.862 202.231 50.4919C204.96 53.1234 208.058 55.0285 210.954 55.8565C213.695 56.6394 215.892 56.3568 217.142 55.0612L217.298 54.8986L218.333 55.8966L218.177 56.0592C217.111 57.164 215.593 57.7272 213.758 57.7272ZM195.986 43.2845C197.072 45.9782 199.046 48.7903 201.545 51.203C204.389 53.9442 207.634 55.9336 210.683 56.8046C213.684 57.6618 216.16 57.341 217.691 55.9043L217.305 55.5328C215.915 56.8197 213.628 57.0902 210.83 56.2908C207.864 55.4428 204.699 53.4988 201.917 50.817C199.137 48.1365 197.08 45.0434 196.125 42.1074C195.18 39.2028 195.315 36.8549 196.498 35.4592L196.113 35.0876C194.785 36.6282 194.607 39.1674 195.617 42.2734C195.729 42.6145 195.852 42.9517 195.986 43.2845Z" fill="#232323"/>
<path d="M197.088 54.692L201.189 50.4396L201.89 51.1163L197.789 55.3685L197.088 54.692Z" fill="#232323"/>
<path d="M197.795 55.6879L196.768 54.6977L201.183 50.1205L202.209 51.1107L197.795 55.6879ZM197.407 54.6861L197.783 55.049L201.57 51.122L201.194 50.7591L197.407 54.6861ZM190.875 45.3294L195.196 40.8494L195.897 41.5258L191.576 46.006L190.875 45.3294Z" fill="#232323"/>
<path d="M191.582 46.3252L190.556 45.335L195.19 40.53L196.216 41.52L191.582 46.3252ZM191.194 45.3235L191.571 45.6864L195.578 41.5315L195.201 41.1687L191.194 45.3235ZM193.359 50.6561L197.607 46.2521L198.308 46.9285L194.061 51.3327L193.359 50.6561Z" fill="#232323"/>
<path d="M194.067 51.6519L193.04 50.6617L197.601 45.9325L198.628 46.9227L194.067 51.6519ZM193.679 50.6503L194.055 51.0132L197.989 46.9341L197.612 46.5712L193.679 50.6503ZM203.817 59.6224L208.065 55.2184L208.766 55.8949L204.519 60.2989L203.817 59.6224Z" fill="#232323"/>
<path d="M204.524 60.6189L203.498 59.6287L208.059 54.8998L209.085 55.89L204.524 60.6189ZM204.136 59.6171L204.513 59.98L208.446 55.9013L208.07 55.5384L204.136 59.6171Z" fill="#232323"/>
</g>
<path d="M204.446 41.8807C204.446 41.3167 204.47 40.7061 204.516 40.0487C204.524 39.9491 204.57 39.8564 204.645 39.791C204.721 39.7256 204.819 39.6929 204.919 39.7C205.018 39.7071 205.111 39.7535 205.176 39.8289C205.242 39.9044 205.275 40.0027 205.268 40.1023C204.992 43.9702 205.611 45.6259 206.282 45.8855C206.706 46.0494 207.32 45.6876 207.926 44.9177C208.715 43.9129 209.393 44.0534 209.726 44.2265C211.123 44.9516 211.523 48.8812 210.802 51.2848C210.773 51.3792 210.708 51.4582 210.62 51.5048C210.533 51.5514 210.431 51.5618 210.336 51.5338C210.242 51.5059 210.162 51.4417 210.114 51.3552C210.066 51.2688 210.054 51.1669 210.08 51.0717L210.081 51.0684C210.78 48.7379 210.252 45.3476 209.38 44.8946C209.099 44.7489 208.756 45.0796 208.518 45.3828C207.673 46.458 206.782 46.8859 206.01 46.5875C204.978 46.1883 204.446 44.5735 204.446 41.8807Z" fill="#232323"/>
<path d="M210.442 51.7808C210.348 51.7808 210.256 51.7589 210.172 51.717C210.088 51.675 210.015 51.6141 209.959 51.539C209.903 51.464 209.865 51.3769 209.848 51.2846C209.832 51.1924 209.837 51.0975 209.863 51.0076L209.868 50.9922C210.174 49.9714 210.26 48.5893 210.095 47.3062C209.926 45.9847 209.561 45.2434 209.275 45.0949C209.189 45.0504 208.976 45.1647 208.695 45.5221C207.783 46.6822 206.801 47.135 205.929 46.798C204.795 46.3595 204.22 44.7051 204.22 41.8805C204.22 41.3136 204.244 40.6918 204.291 40.0326C204.296 39.9537 204.317 39.8766 204.353 39.8058C204.388 39.735 204.437 39.672 204.497 39.6203C204.557 39.5685 204.626 39.5289 204.701 39.5039C204.777 39.4789 204.856 39.469 204.935 39.4747C205.095 39.486 205.242 39.5593 205.347 39.6809C205.452 39.8024 205.504 39.9579 205.493 40.1183C205.206 44.1281 205.905 45.4976 206.363 45.6745C206.68 45.7968 207.223 45.4452 207.748 44.778C208.671 43.6028 209.512 43.8605 209.83 44.026C211.339 44.8088 211.778 48.8156 211.018 51.3496C210.996 51.4253 210.959 51.496 210.909 51.5574C210.86 51.6187 210.798 51.6697 210.729 51.7072C210.641 51.7554 210.542 51.7807 210.442 51.7808ZM209.235 44.6331C209.332 44.6331 209.414 44.6584 209.483 44.6942C210.527 45.2359 210.983 48.8466 210.297 51.1333C210.292 51.1522 210.29 51.1721 210.292 51.1918C210.294 51.2114 210.299 51.2305 210.309 51.248C210.318 51.2654 210.331 51.2808 210.346 51.2933C210.361 51.3059 210.379 51.3153 210.398 51.321C210.417 51.3268 210.436 51.3287 210.456 51.3268C210.476 51.3248 210.495 51.319 210.512 51.3097C210.53 51.3004 210.545 51.2877 210.558 51.2724C210.57 51.2572 210.58 51.2396 210.585 51.2207C211.334 48.7263 210.811 45.044 209.622 44.4268C209.29 44.2547 208.757 44.2243 208.103 45.0571C207.423 45.9221 206.729 46.3006 206.2 46.096C205.233 45.7219 204.8 43.4753 205.042 40.0862C205.043 40.0665 205.041 40.0466 205.035 40.0278C205.028 40.0091 205.019 39.9917 205.006 39.9767C204.993 39.9617 204.977 39.9495 204.959 39.9406C204.941 39.9318 204.922 39.9265 204.902 39.9251C204.883 39.9233 204.863 39.9257 204.844 39.9319C204.825 39.9382 204.808 39.9483 204.793 39.9615C204.778 39.9744 204.766 39.9902 204.757 40.0079C204.748 40.0255 204.743 40.0448 204.741 40.0645C204.695 40.7134 204.672 41.3243 204.672 41.8805C204.672 44.4627 205.163 46.0175 206.091 46.3765C206.763 46.6364 207.561 46.2336 208.339 45.2431C208.709 44.7725 209.01 44.6331 209.235 44.6331Z" fill="#232323"/>
<path d="M202.613 41.027C202.613 40.9534 202.634 40.8815 202.675 40.82C202.715 40.7586 202.773 40.7103 202.841 40.6813C202.908 40.6523 202.983 40.6437 203.055 40.6567C203.128 40.6696 203.195 40.7035 203.248 40.7542L204.96 42.3804C205.034 42.4482 205.077 42.5422 205.081 42.642C205.085 42.7418 205.049 42.8391 204.982 42.9124C204.914 42.9858 204.82 43.0293 204.72 43.0333C204.62 43.0373 204.523 43.0015 204.45 42.9338L204.442 42.9264L202.73 41.3002C202.693 41.265 202.663 41.2226 202.643 41.1757C202.623 41.1287 202.613 41.0781 202.613 41.027Z" fill="#232323"/>
<path d="M204.704 43.2594C204.553 43.2597 204.407 43.2026 204.296 43.0996L204.284 43.0883L202.574 41.4639C202.515 41.4075 202.468 41.3397 202.436 41.2646C202.403 41.1895 202.387 41.1086 202.387 41.0269C202.387 40.8672 202.451 40.7142 202.564 40.6014C202.676 40.4885 202.83 40.4251 202.989 40.4249C203.144 40.4248 203.292 40.4841 203.404 40.5907L205.115 42.2168C205.231 42.3237 205.3 42.4723 205.306 42.6331C205.313 42.7939 205.256 42.9475 205.147 43.0657C205.091 43.127 205.022 43.1759 204.946 43.2093C204.87 43.2426 204.787 43.2597 204.704 43.2594ZM202.989 40.8765C202.949 40.8765 202.911 40.8924 202.882 40.9206C202.854 40.9488 202.838 40.9871 202.838 41.027C202.838 41.068 202.855 41.1079 202.885 41.1361L204.597 42.7625C204.664 42.824 204.759 42.8203 204.815 42.7591C204.842 42.7298 204.857 42.6909 204.855 42.6511C204.853 42.6112 204.836 42.5736 204.807 42.5465L203.093 40.918C203.065 40.8912 203.028 40.8763 202.989 40.8765ZM210.405 48.4298C210.405 48.3563 210.427 48.2845 210.467 48.2232C210.508 48.1619 210.565 48.1137 210.633 48.0847C210.7 48.0557 210.775 48.0471 210.847 48.0599C210.919 48.0728 210.986 48.1065 211.04 48.157L212.763 49.7936C212.836 49.8624 212.878 49.9572 212.88 50.057C212.883 50.1568 212.846 50.2536 212.777 50.326C212.708 50.3984 212.613 50.4405 212.513 50.443C212.414 50.4455 212.317 50.4083 212.244 50.3395L210.522 48.703C210.485 48.6678 210.455 48.6255 210.435 48.5785C210.415 48.5315 210.405 48.4809 210.405 48.4298Z" fill="#232323"/>
<path d="M212.503 50.6689C212.349 50.6693 212.2 50.6098 212.089 50.503L210.366 48.8665C210.307 48.8101 210.26 48.7424 210.228 48.6673C210.195 48.5921 210.179 48.5113 210.179 48.4295C210.179 48.3504 210.194 48.2719 210.225 48.1988C210.255 48.1258 210.3 48.0595 210.356 48.0038C210.412 47.948 210.478 47.9037 210.551 47.8736C210.624 47.8435 210.702 47.828 210.781 47.8282H210.782C210.936 47.8285 211.083 47.8873 211.194 47.9927L212.919 49.6298C213.034 49.7399 213.102 49.8915 213.106 50.0512C213.11 50.2109 213.05 50.3657 212.94 50.4816C212.886 50.5391 212.821 50.5852 212.748 50.6174C212.676 50.6495 212.598 50.667 212.519 50.6688L212.503 50.6689ZM210.63 48.4301C210.63 48.4711 210.647 48.5107 210.677 48.539L212.4 50.1758C212.429 50.2036 212.467 50.2175 212.507 50.2172C212.537 50.2163 212.566 50.2067 212.59 50.1894C212.615 50.1722 212.633 50.1482 212.644 50.1204C212.655 50.0926 212.657 50.0623 212.65 50.0333C212.644 50.0042 212.629 49.9777 212.607 49.9571L210.884 48.3206C210.856 48.2944 210.819 48.2799 210.781 48.2798H210.781C210.761 48.2798 210.741 48.2837 210.723 48.2912C210.705 48.2987 210.688 48.3098 210.674 48.3238C210.66 48.3377 210.649 48.3543 210.642 48.3726C210.634 48.3908 210.63 48.4104 210.63 48.4301Z" fill="#232323"/>
</g>
<g clip-path="url(#clip2_96_4095)">
<path d="M234.397 90.4384C230.28 94.8461 228.793 100.126 231.078 102.232L234.595 105.473C236.88 107.579 242.07 105.713 246.188 101.305C250.307 96.8973 251.793 91.6172 249.508 89.5114L245.991 86.2702C243.706 84.1644 238.516 86.0306 234.397 90.4384Z" fill="#48847A" fill-opacity="0.5"/>
<mask id="mask13_96_4095" style="mask-type:luminance" maskUnits="userSpaceOnUse" x="230" y="85" width="21" height="22">
<path d="M234.397 90.4384C230.28 94.8461 228.793 100.126 231.078 102.232L234.595 105.473C236.88 107.579 242.07 105.713 246.188 101.305C250.307 96.8973 251.793 91.6172 249.508 89.5114L245.991 86.2702C243.706 84.1644 238.516 86.0306 234.397 90.4384Z" fill="white"/>
</mask>
<g mask="url(#mask13_96_4095)">
<path d="M235.57 103.527C233.381 104.137 231.541 103.875 230.341 102.769C230.295 102.726 230.257 102.675 230.231 102.618C230.205 102.561 230.19 102.499 230.188 102.436C230.186 102.373 230.196 102.311 230.218 102.252C230.24 102.193 230.274 102.139 230.317 102.093C230.36 102.047 230.412 102.009 230.469 101.983C230.527 101.957 230.589 101.942 230.652 101.94C230.715 101.937 230.778 101.947 230.837 101.969C230.897 101.991 230.951 102.024 230.997 102.066C232.041 103.029 233.783 103.155 235.905 102.421C238.128 101.651 240.462 100.04 242.476 97.8838C244.491 95.7277 245.934 93.2961 246.541 91.0364C247.119 88.8815 246.863 87.1647 245.819 86.2022C245.772 86.1595 245.735 86.1082 245.709 86.0512C245.683 85.9942 245.668 85.9325 245.666 85.8698C245.663 85.807 245.674 85.7444 245.696 85.6854C245.718 85.6265 245.751 85.5725 245.795 85.5263C245.838 85.4802 245.889 85.443 245.947 85.4167C246.004 85.3904 246.067 85.3756 246.13 85.3731C246.193 85.3706 246.256 85.3806 246.315 85.4023C246.374 85.424 246.429 85.4572 246.475 85.4998C247.792 86.7138 248.146 88.7663 247.471 91.2796C246.824 93.688 245.301 96.264 243.181 98.533C241.061 100.802 238.588 102.503 236.218 103.324C236.004 103.398 235.788 103.466 235.57 103.527Z" fill="#232323"/>
</g>
<mask id="mask14_96_4095" style="mask-type:luminance" maskUnits="userSpaceOnUse" x="230" y="85" width="21" height="22">
<path d="M234.397 90.4384C230.28 94.8461 228.793 100.126 231.078 102.232L234.595 105.473C236.88 107.579 242.07 105.713 246.188 101.305C250.307 96.8973 251.793 91.6172 249.508 89.5114L245.991 86.2702C243.706 84.1644 238.516 86.0306 234.397 90.4384Z" fill="white"/>
</mask>
<g mask="url(#mask14_96_4095)">
<path d="M246.308 101.869C246.228 101.891 246.144 101.893 246.064 101.874C245.984 101.855 245.911 101.815 245.85 101.76L242.455 98.6305C242.409 98.5878 242.372 98.5365 242.345 98.4795C242.319 98.4224 242.304 98.3608 242.302 98.298C242.3 98.2353 242.31 98.1726 242.332 98.1137C242.354 98.0548 242.388 98.0007 242.431 97.9546C242.474 97.9085 242.526 97.8712 242.583 97.8449C242.641 97.8187 242.703 97.8039 242.766 97.8014C242.829 97.7989 242.892 97.8088 242.952 97.8306C243.011 97.8523 243.065 97.8855 243.111 97.9281L246.507 101.058C246.57 101.115 246.616 101.189 246.64 101.27C246.665 101.351 246.667 101.438 246.646 101.52C246.626 101.603 246.584 101.679 246.524 101.74C246.465 101.801 246.39 101.846 246.308 101.869ZM239.038 106.872C238.959 106.894 238.875 106.896 238.795 106.877C238.715 106.857 238.641 106.818 238.581 106.763L235.004 103.465C234.958 103.423 234.92 103.371 234.894 103.314C234.868 103.257 234.853 103.196 234.851 103.133C234.849 103.07 234.859 103.008 234.881 102.949C234.903 102.89 234.937 102.836 234.98 102.79C235.023 102.743 235.075 102.706 235.132 102.68C235.19 102.654 235.252 102.639 235.315 102.636C235.378 102.634 235.441 102.644 235.5 102.666C235.56 102.687 235.614 102.72 235.66 102.763L239.238 106.06C239.3 106.118 239.346 106.191 239.371 106.273C239.395 106.354 239.398 106.44 239.377 106.523C239.357 106.606 239.315 106.682 239.255 106.743C239.196 106.804 239.121 106.849 239.038 106.872ZM243.188 104.845C243.109 104.868 243.025 104.869 242.945 104.85C242.865 104.831 242.791 104.792 242.731 104.736L239.214 101.495C239.121 101.409 239.066 101.289 239.062 101.163C239.057 101.036 239.103 100.912 239.19 100.819C239.277 100.726 239.398 100.671 239.526 100.666C239.653 100.661 239.777 100.707 239.871 100.793L243.388 104.034C243.45 104.092 243.496 104.165 243.521 104.246C243.545 104.328 243.548 104.414 243.527 104.497C243.507 104.579 243.465 104.655 243.405 104.717C243.346 104.778 243.271 104.822 243.188 104.845ZM251.446 94.6778C251.367 94.7 251.283 94.7017 251.203 94.6826C251.123 94.6635 251.049 94.6243 250.989 94.5687L246.866 90.7686C246.773 90.6825 246.718 90.5629 246.713 90.4362C246.709 90.3095 246.755 90.1859 246.842 90.0928C246.929 89.9997 247.05 89.9445 247.177 89.9396C247.305 89.9346 247.429 89.9802 247.522 90.0663L251.645 93.8663C251.708 93.9241 251.754 93.9973 251.779 94.0787C251.803 94.16 251.805 94.2465 251.785 94.3291C251.765 94.4118 251.723 94.4877 251.663 94.549C251.604 94.6102 251.529 94.6547 251.446 94.6778ZM249.176 98.4364C249.097 98.4586 249.013 98.4603 248.933 98.4412C248.853 98.4221 248.779 98.3828 248.719 98.3273L245.202 95.0861C245.109 95 245.054 94.8804 245.049 94.7537C245.045 94.627 245.091 94.5034 245.178 94.4103C245.265 94.3172 245.386 94.262 245.513 94.2571C245.641 94.2521 245.765 94.2977 245.858 94.3838L249.375 97.6249C249.438 97.6826 249.484 97.7559 249.508 97.8373C249.533 97.9186 249.535 98.0051 249.515 98.0877C249.494 98.1704 249.452 98.2463 249.393 98.3075C249.333 98.3688 249.258 98.4133 249.176 98.4364Z" fill="#232323"/>
</g>
<path d="M235.358 98.6723C234.791 98.8303 234.172 98.9779 233.501 99.1148C233.376 99.1403 233.246 99.1154 233.139 99.0456C233.033 98.9758 232.959 98.8668 232.934 98.7426C232.921 98.6811 232.921 98.6175 232.933 98.5558C232.945 98.494 232.969 98.4351 233.004 98.3826C233.039 98.3301 233.084 98.2849 233.137 98.2498C233.19 98.2147 233.249 98.1902 233.311 98.1779C238.379 97.1446 238.758 95.8631 238.783 95.6166C238.825 95.193 238.296 94.7014 237.404 94.3341C236.113 93.8031 236.066 93.0382 236.153 92.6296C236.502 90.9936 240.397 89.4558 243.051 89.5021C243.178 89.5043 243.3 89.5568 243.388 89.6481C243.476 89.7393 243.524 89.8618 243.522 89.9887C243.519 90.1155 243.466 90.2362 243.373 90.3243C243.281 90.4124 243.158 90.4607 243.03 90.4584C240.347 90.4115 237.283 91.9422 237.095 92.8239C237.036 93.101 237.496 93.3351 237.775 93.45C239.132 94.0084 239.83 94.81 239.741 95.7069C239.623 96.8901 238.117 97.9028 235.358 98.6723Z" fill="#232323"/>
<path d="M235.023 100.742C234.932 100.767 234.836 100.765 234.746 100.737C234.657 100.708 234.578 100.654 234.519 100.582C234.46 100.509 234.424 100.421 234.415 100.327C234.406 100.234 234.425 100.141 234.47 100.058L235.631 97.89C235.66 97.8333 235.7 97.7828 235.749 97.7415C235.797 97.7003 235.854 97.6691 235.915 97.6498C235.976 97.6304 236.04 97.6234 236.104 97.629C236.168 97.6346 236.23 97.6528 236.286 97.6825C236.343 97.7122 236.392 97.7528 236.433 97.8019C236.473 97.851 236.503 97.9077 236.521 97.9686C236.539 98.0295 236.545 98.0934 236.538 98.1566C236.531 98.2198 236.511 98.281 236.48 98.3366L235.319 100.505C235.288 100.562 235.246 100.613 235.195 100.653C235.144 100.694 235.086 100.724 235.023 100.742ZM240.307 90.8735C240.216 90.8987 240.12 90.897 240.031 90.8686C239.941 90.8401 239.862 90.7862 239.803 90.7134C239.744 90.6407 239.708 90.5523 239.7 90.4592C239.691 90.3661 239.71 90.2724 239.754 90.1897L240.923 88.008C240.952 87.9512 240.992 87.9007 241.041 87.8595C241.089 87.8182 241.146 87.787 241.207 87.7677C241.268 87.7484 241.332 87.7413 241.396 87.747C241.46 87.7526 241.522 87.7708 241.578 87.8004C241.634 87.8301 241.684 87.8707 241.725 87.9198C241.765 87.969 241.795 88.0256 241.813 88.0865C241.831 88.1475 241.837 88.2114 241.83 88.2746C241.823 88.3378 241.803 88.399 241.772 88.4546L240.604 90.6363C240.573 90.6938 240.531 90.7444 240.48 90.7852C240.429 90.8259 240.37 90.856 240.307 90.8735Z" fill="#232323"/>
</g>
<g clip-path="url(#clip3_96_4095)">
<path d="M269.234 138.011L230.311 126.531C224.601 124.847 218.607 128.111 216.923 133.82L188.476 230.267C186.792 235.977 190.056 241.971 195.765 243.655L234.689 255.135C240.399 256.819 246.393 253.555 248.077 247.846L276.524 151.399C278.208 145.689 274.944 139.695 269.234 138.011Z" fill="white"/>
<path d="M237.759 259.171C236.377 259.17 235.001 258.97 233.676 258.577L194.749 247.097C191.097 246.015 188.023 243.529 186.201 240.183C184.38 236.838 183.96 232.907 185.033 229.252L213.482 132.804C214.015 130.994 214.9 129.308 216.086 127.84C217.272 126.373 218.735 125.153 220.392 124.251C222.049 123.349 223.867 122.782 225.743 122.583C227.619 122.384 229.516 122.556 231.326 123.09L270.25 134.57C273.903 135.652 276.977 138.138 278.798 141.483C280.619 144.829 281.039 148.76 279.966 152.415L251.519 248.863C250.641 251.834 248.827 254.441 246.348 256.298C243.869 258.155 240.857 259.163 237.759 259.171ZM227.25 129.677C225.7 129.681 224.193 130.186 222.953 131.115C221.712 132.044 220.805 133.349 220.365 134.836L191.918 231.283C191.381 233.112 191.591 235.079 192.503 236.753C193.415 238.428 194.953 239.672 196.781 240.213L235.705 251.694C237.534 252.233 239.502 252.024 241.177 251.112C242.852 250.2 244.096 248.66 244.635 246.831L273.083 150.384C273.62 148.555 273.409 146.588 272.498 144.913C271.586 143.239 270.048 141.995 268.22 141.454L229.296 129.973C228.631 129.777 227.943 129.677 227.25 129.677Z" fill="#232323"/>
<path d="M259.433 141.566C259.138 141.565 258.844 141.523 258.561 141.439L236.414 134.906C235.631 134.675 234.973 134.143 234.582 133.426C234.192 132.71 234.103 131.868 234.334 131.085C234.564 130.303 235.097 129.644 235.813 129.254C236.53 128.864 237.372 128.774 238.154 129.005L260.3 135.537C261.01 135.746 261.621 136.203 262.021 136.826C262.421 137.449 262.584 138.195 262.478 138.927C262.372 139.66 262.006 140.329 261.447 140.814C260.887 141.298 260.172 141.565 259.432 141.564L259.433 141.566Z" fill="#232323"/>
</g>
<g clip-path="url(#clip4_96_4095)">
<path d="M151.57 11.4937C143.499 14.6114 138.275 20.5058 139.903 24.6595L142.409 31.0529C144.037 35.2066 151.901 36.0464 159.973 32.9288C168.045 29.8112 173.269 23.9167 171.64 19.763L169.134 13.3696C167.506 9.2159 159.643 8.37608 151.57 11.4937Z" fill="#48847A" fill-opacity="0.5"/>
<mask id="mask15_96_4095" style="mask-type:luminance" maskUnits="userSpaceOnUse" x="139" y="9" width="33" height="26">
<path d="M151.57 11.4937C143.499 14.6114 138.275 20.5058 139.903 24.6595L142.409 31.0529C144.037 35.2066 151.901 36.0464 159.973 32.9288C168.045 29.8112 173.269 23.9167 171.64 19.763L169.134 13.3696C167.506 9.2159 159.643 8.37608 151.57 11.4937Z" fill="white"/>
</mask>
<g mask="url(#mask15_96_4095)">
<path d="M144.886 29.1473C141.681 28.5648 139.471 27.0733 138.616 24.8911C138.583 24.807 138.567 24.7173 138.569 24.6272C138.571 24.537 138.59 24.4481 138.627 24.3656C138.663 24.2831 138.716 24.2085 138.781 24.1462C138.847 24.0839 138.924 24.035 139.008 24.0024C139.093 23.9698 139.183 23.9541 139.273 23.9561C139.364 23.9582 139.454 23.978 139.537 24.0144C139.62 24.0508 139.695 24.1031 139.757 24.1683C139.82 24.2335 139.869 24.3103 139.902 24.3944C140.646 26.293 142.814 27.5474 146.01 27.9276C149.36 28.3259 153.379 27.7054 157.328 26.1803C161.276 24.6553 164.661 22.4164 166.859 19.8755C168.955 17.4523 169.699 15.0723 168.955 13.1737C168.922 13.0896 168.906 12.9999 168.908 12.9097C168.91 12.8196 168.929 12.7307 168.966 12.6481C169.002 12.5656 169.055 12.4911 169.12 12.4288C169.185 12.3665 169.263 12.3176 169.347 12.285C169.432 12.2524 169.522 12.2366 169.612 12.2387C169.703 12.2407 169.792 12.2605 169.875 12.2969C169.958 12.3333 170.034 12.3856 170.096 12.4508C170.159 12.516 170.208 12.5929 170.241 12.677C171.18 15.0716 170.351 17.9466 167.906 20.7726C165.564 23.4807 161.985 25.8561 157.83 27.4608C153.674 29.0657 149.419 29.7157 145.849 29.2913C145.527 29.2532 145.205 29.2051 144.886 29.1473Z" fill="#232323"/>
</g>
<mask id="mask16_96_4095" style="mask-type:luminance" maskUnits="userSpaceOnUse" x="139" y="9" width="33" height="26">
<path d="M151.57 11.4937C143.499 14.6114 138.275 20.5058 139.903 24.6595L142.409 31.0529C144.037 35.2066 151.901 36.0464 159.973 32.9288C168.045 29.8112 173.269 23.9167 171.64 19.763L169.134 13.3696C167.506 9.2159 159.643 8.37608 151.57 11.4937Z" fill="white"/>
</mask>
<g mask="url(#mask16_96_4095)">
<path d="M159.773 33.7323C159.657 33.7113 159.548 33.661 159.457 33.5862C159.365 33.5114 159.295 33.4145 159.252 33.3049L156.833 27.1321C156.8 27.048 156.784 26.9583 156.785 26.8681C156.787 26.778 156.807 26.6891 156.843 26.6066C156.88 26.524 156.932 26.4495 156.998 26.3872C157.063 26.3249 157.14 26.276 157.225 26.2434C157.309 26.2108 157.399 26.1951 157.49 26.1971C157.581 26.1992 157.67 26.2189 157.753 26.2553C157.836 26.2917 157.911 26.344 157.974 26.4093C158.037 26.4745 158.086 26.5513 158.119 26.6354L160.539 32.8083C160.583 32.9221 160.597 33.0457 160.577 33.1662C160.558 33.2867 160.507 33.3999 160.429 33.494C160.351 33.5881 160.249 33.6599 160.134 33.7017C160.018 33.7436 159.894 33.7542 159.773 33.7323ZM147.264 35.6446C147.148 35.6236 147.039 35.5733 146.947 35.4985C146.856 35.4236 146.786 35.3268 146.743 35.2172L144.194 28.7135C144.161 28.6294 144.145 28.5397 144.147 28.4495C144.148 28.3594 144.168 28.2705 144.205 28.1879C144.241 28.1054 144.293 28.0309 144.359 27.9686C144.424 27.9063 144.501 27.8574 144.586 27.8248C144.67 27.7922 144.761 27.7764 144.851 27.7785C144.942 27.7805 145.031 27.8003 145.114 27.8367C145.197 27.8731 145.272 27.9254 145.335 27.9906C145.398 28.0558 145.447 28.1327 145.48 28.2168L148.029 34.7203C148.074 34.8342 148.087 34.9577 148.068 35.0783C148.049 35.1989 147.997 35.3121 147.919 35.4062C147.842 35.5004 147.74 35.5721 147.624 35.614C147.509 35.6559 147.385 35.6665 147.264 35.6446ZM153.886 35.6255C153.769 35.6045 153.66 35.5542 153.569 35.4794C153.478 35.4045 153.407 35.3077 153.365 35.1981L150.859 28.8046C150.792 28.6348 150.796 28.4457 150.87 28.2791C150.943 28.1124 151.08 27.9818 151.251 27.9159C151.422 27.85 151.612 27.8543 151.779 27.9278C151.947 28.0014 152.079 28.1381 152.145 28.3079L154.651 34.7012C154.696 34.8151 154.709 34.9386 154.69 35.0592C154.671 35.1798 154.619 35.293 154.541 35.3872C154.463 35.4813 154.362 35.553 154.246 35.5949C154.131 35.6368 154.007 35.6474 153.886 35.6255ZM170.905 27.6561C170.789 27.6351 170.68 27.5847 170.588 27.5099C170.497 27.4351 170.427 27.3382 170.384 27.2287L167.446 19.733C167.379 19.5632 167.383 19.3741 167.457 19.2075C167.53 19.0408 167.667 18.9102 167.838 18.8443C168.009 18.7785 168.199 18.7828 168.366 18.8563C168.534 18.9298 168.666 19.0665 168.732 19.2363L171.67 26.732C171.715 26.8458 171.728 26.9693 171.709 27.0898C171.689 27.2103 171.638 27.3235 171.56 27.4176C171.482 27.5117 171.38 27.5834 171.265 27.6254C171.15 27.6673 171.026 27.6779 170.905 27.6561ZM165.623 31.0923C165.507 31.0713 165.398 31.021 165.306 30.9461C165.215 30.8713 165.145 30.7745 165.102 30.6649L162.595 24.2715C162.529 24.1017 162.533 23.9127 162.606 23.746C162.68 23.5794 162.817 23.4487 162.988 23.3829C163.158 23.317 163.348 23.3213 163.516 23.3948C163.684 23.4683 163.815 23.605 163.882 23.7749L166.388 30.1682C166.433 30.282 166.446 30.4055 166.427 30.526C166.407 30.6465 166.356 30.7597 166.278 30.8538C166.2 30.948 166.098 31.0197 165.983 31.0616C165.868 31.1035 165.744 31.1141 165.623 31.0923Z" fill="#232323"/>
</g>
<path d="M147.652 22.7392C146.823 22.5884 145.931 22.3914 144.98 22.1477C144.802 22.1022 144.65 21.9886 144.557 21.8317C144.464 21.6749 144.437 21.4877 144.482 21.3114C144.504 21.2238 144.543 21.1414 144.597 21.0691C144.652 20.9968 144.72 20.9359 144.798 20.89C144.876 20.844 144.963 20.814 145.052 20.8015C145.142 20.7891 145.234 20.7945 145.322 20.8175C152.506 22.6572 153.798 21.2384 153.984 20.9351C154.303 20.4139 153.929 19.4473 153.008 18.413C151.676 16.9179 152.095 15.8999 152.463 15.4262C153.937 13.5299 159.924 13.9827 163.318 15.7051C163.481 15.788 163.605 15.9319 163.662 16.1052C163.718 16.2785 163.704 16.4669 163.621 16.6292C163.538 16.7914 163.393 16.914 163.219 16.9702C163.045 17.0263 162.856 17.0113 162.692 16.9284C159.261 15.1865 154.351 15.2456 153.556 16.2677C153.306 16.5889 153.753 17.1795 154.041 17.5029C155.441 19.0751 155.84 20.5487 155.163 21.6521C154.27 23.1079 151.693 23.4734 147.652 22.7392Z" fill="#232323"/>
<path d="M145.924 25.2045C145.791 25.1803 145.669 25.1179 145.571 25.025C145.473 24.9322 145.405 24.8129 145.375 24.6819C145.344 24.551 145.353 24.4142 145.4 24.2884C145.447 24.1626 145.53 24.0534 145.639 23.9742L148.495 21.8992C148.568 21.844 148.651 21.8039 148.74 21.7812C148.829 21.7584 148.921 21.7535 149.012 21.7668C149.103 21.7801 149.19 21.8112 149.269 21.8584C149.347 21.9055 149.416 21.9678 149.47 22.0416C149.524 22.1153 149.563 22.199 149.584 22.2879C149.606 22.3767 149.609 22.4688 149.594 22.5589C149.579 22.6489 149.547 22.7351 149.498 22.8123C149.449 22.8895 149.385 22.9563 149.31 23.0087L146.455 25.0837C146.38 25.1387 146.294 25.1778 146.202 25.1986C146.111 25.2194 146.016 25.2214 145.924 25.2045ZM158.921 15.7591C158.788 15.7349 158.665 15.6725 158.567 15.5796C158.47 15.4868 158.401 15.3675 158.371 15.2365C158.341 15.1056 158.35 14.9688 158.397 14.843C158.444 14.7172 158.527 14.608 158.636 14.5288L161.509 12.4405C161.582 12.3854 161.666 12.3452 161.754 12.3225C161.843 12.2998 161.936 12.2949 162.027 12.3082C162.117 12.3214 162.205 12.3526 162.283 12.3997C162.362 12.4469 162.43 12.5092 162.485 12.5829C162.539 12.6567 162.578 12.7404 162.599 12.8292C162.62 12.918 162.624 13.0102 162.609 13.1002C162.594 13.1903 162.561 13.2764 162.513 13.3537C162.464 13.4309 162.4 13.4977 162.325 13.5501L159.452 15.6383C159.376 15.6933 159.29 15.7324 159.199 15.7532C159.108 15.774 159.013 15.776 158.921 15.7591Z" fill="#232323"/>
</g>
<g clip-path="url(#clip5_96_4095)">
<path d="M219.045 210.281L189.909 170.389C189.804 170.245 189.741 170.076 189.727 169.899C189.712 169.722 189.748 169.545 189.828 169.387C189.909 169.229 190.032 169.096 190.183 169.003C190.335 168.91 190.509 168.861 190.687 168.861L207.906 168.824C208.427 168.823 208.941 168.945 209.405 169.18C209.87 169.415 210.272 169.756 210.579 170.176L219.968 183.031C220.088 183.196 220.245 183.331 220.426 183.427C220.607 183.522 220.807 183.576 221.011 183.582C221.216 183.589 221.42 183.55 221.606 183.466C221.793 183.383 221.959 183.259 222.09 183.102L242.433 158.869C242.794 158.439 243.246 158.093 243.756 157.856C244.267 157.62 244.823 157.498 245.386 157.5L263.008 157.557C263.229 157.558 263.444 157.621 263.63 157.739C263.815 157.858 263.963 158.026 264.056 158.225C264.149 158.424 264.183 158.646 264.155 158.863C264.126 159.081 264.036 159.286 263.894 159.455L221.167 210.352C221.036 210.509 220.87 210.633 220.684 210.717C220.497 210.8 220.293 210.839 220.089 210.833C219.884 210.826 219.684 210.772 219.503 210.677C219.322 210.581 219.165 210.446 219.045 210.281Z" fill="#48847A"/>
</g>
<g clip-path="url(#clip6_96_4095)">
<path d="M174.77 52.5811C174.784 52.5887 174.799 52.5971 174.812 52.6063C182.682 57.7894 191.462 65.8546 199.537 75.3164C207.125 84.2084 213.068 93.1478 215.843 99.8427C215.891 99.9588 215.891 100.089 215.843 100.205C215.795 100.321 215.703 100.413 215.587 100.461C215.471 100.509 215.34 100.508 215.224 100.46C215.108 100.412 215.016 100.32 214.968 100.204C212.23 93.597 206.343 84.7497 198.817 75.93C190.799 66.5344 182.089 58.5316 174.293 53.3965C174.191 53.3298 174.119 53.2268 174.091 53.1086C174.063 52.9904 174.082 52.8662 174.143 52.7615C174.205 52.6569 174.304 52.5799 174.421 52.5464C174.537 52.5128 174.663 52.5254 174.77 52.5814L174.77 52.5811ZM177.857 71.4743C177.889 71.4906 177.918 71.5102 177.945 71.533C185.149 77.605 192.919 86.6457 199.823 96.9894C206.311 106.712 211.16 116.286 213.126 123.26C213.159 123.38 213.142 123.508 213.081 123.617C213.019 123.725 212.917 123.805 212.797 123.838C212.677 123.872 212.548 123.857 212.439 123.796C212.33 123.736 212.249 123.635 212.214 123.515C210.274 116.633 205.47 107.156 199.035 97.5142C192.179 87.2421 184.473 78.272 177.334 72.2557C177.244 72.1807 177.186 72.0754 177.169 71.9599C177.153 71.8445 177.179 71.7271 177.244 71.6303C177.309 71.5334 177.407 71.4639 177.52 71.4351C177.633 71.4063 177.753 71.4201 177.857 71.4741L177.857 71.4743Z" fill="#232323"/>
</g>
<defs>
<clipPath id="clip0_96_4095">
<rect width="135.833" height="257.5" fill="white" transform="translate(20 32.5)"/>
</clipPath>
<clipPath id="clip1_96_4095">
<rect width="27.7778" height="26.3889" fill="white" transform="translate(190.556 34.4445)"/>
</clipPath>
<clipPath id="clip2_96_4095">
<rect width="23.0556" height="19.7222" fill="white" transform="translate(226.664 89.8472) rotate(-15.5794)"/>
</clipPath>
<clipPath id="clip3_96_4095">
<rect width="96.1111" height="136.667" fill="white" transform="translate(184.444 122.5)"/>
</clipPath>
<clipPath id="clip4_96_4095">
<rect width="33.0556" height="28.3333" fill="white" transform="translate(141.966 5.88412) rotate(10.3003)"/>
</clipPath>
<clipPath id="clip5_96_4095">
<rect width="74.4444" height="53.3333" fill="white" transform="translate(189.722 157.5)"/>
</clipPath>
<clipPath id="clip6_96_4095">
<rect width="67.2222" height="45.8333" fill="white" transform="translate(212.873 124.026) rotate(-152.548)"/>
</clipPath>
</defs>
</svg>
