<svg width="21" height="20" viewBox="0 0 21 20" fill="none" xmlns="http://www.w3.org/2000/svg">
<mask id="mask0_58_851" style="mask-type:luminance" maskUnits="userSpaceOnUse" x="2" y="0" width="18" height="19">
<path fill-rule="evenodd" clip-rule="evenodd" d="M2.16663 0.833496H19.2498V18.7543H2.16663V0.833496Z" fill="white"/>
</mask>
<g mask="url(#mask0_58_851)">
<path fill-rule="evenodd" clip-rule="evenodd" d="M11.9307 12.7427C12.934 12.7427 13.7507 13.5536 13.7507 14.5502V17.1136C13.7507 17.3277 13.9223 17.4994 14.1423 17.5044H15.7307C16.9823 17.5044 17.9998 16.4994 17.9998 15.2644V7.99442C17.994 7.56942 17.7915 7.16942 17.444 6.90358L11.9498 2.52192C11.2123 1.93775 10.1807 1.93775 9.44067 2.52358L3.984 6.90192C3.62317 7.17608 3.42067 7.57608 3.4165 8.00858V15.2644C3.4165 16.4994 4.434 17.5044 5.68567 17.5044H7.289C7.51484 17.5044 7.69817 17.3252 7.69817 17.1052C7.69817 17.0569 7.704 17.0086 7.714 16.9627V14.5502C7.714 13.5594 8.52567 12.7494 9.5215 12.7427H11.9307ZM15.7307 18.7544H14.1273C13.209 18.7327 12.5007 18.0119 12.5007 17.1136V14.5503C12.5007 14.2428 12.2448 13.9928 11.9307 13.9928H9.52567C9.21817 13.9944 8.964 14.2453 8.964 14.5503V17.1053C8.964 17.1678 8.95567 17.2278 8.93817 17.2844C8.84817 18.1094 8.14317 18.7544 7.289 18.7544H5.68567C3.74484 18.7544 2.1665 17.1886 2.1665 15.2644V8.00275C2.17484 7.17442 2.5565 6.41608 3.21567 5.91692L8.6615 1.54608C9.86067 0.596083 11.5315 0.596082 12.7282 1.54442L18.2132 5.91942C18.8573 6.41025 19.239 7.16692 19.2498 7.98525V15.2644C19.2498 17.1886 17.6715 18.7544 15.7307 18.7544Z" fill="#9CA3AF"/>
</g>
</svg>
