<svg width="21" height="20" viewBox="0 0 21 20" fill="none" xmlns="http://www.w3.org/2000/svg">
<path fill-rule="evenodd" clip-rule="evenodd" d="M9.84277 9.34326L8.97027 12.1324L11.7586 11.2591L12.6319 8.46992L9.84277 9.34326ZM8.01694 13.7099C7.85361 13.7099 7.69361 13.6458 7.57444 13.5274C7.41027 13.3624 7.35027 13.1199 7.42027 12.8991L8.74777 8.65826C8.80861 8.46159 8.96194 8.30909 9.15694 8.24826L13.3978 6.92076C13.6203 6.84992 13.8619 6.91076 14.0269 7.07492C14.1911 7.23992 14.2511 7.48242 14.1811 7.70326L12.8544 11.9441C12.7936 12.1399 12.6394 12.2933 12.4444 12.3541L8.20361 13.6816C8.14194 13.7008 8.07861 13.7099 8.01694 13.7099Z" fill="#9CA3AF"/>
<mask id="mask0_58_847" style="mask-type:luminance" maskUnits="userSpaceOnUse" x="2" y="1" width="18" height="18">
<path fill-rule="evenodd" clip-rule="evenodd" d="M2.16663 1.66663H19.4348V18.9347H2.16663V1.66663Z" fill="white"/>
</mask>
<g mask="url(#mask0_58_847)">
<path fill-rule="evenodd" clip-rule="evenodd" d="M10.8007 2.91663C6.729 2.91663 3.4165 6.22996 3.4165 10.3008C3.4165 14.3725 6.729 17.685 10.8007 17.685C14.8723 17.685 18.1848 14.3725 18.1848 10.3008C18.1848 6.22996 14.8723 2.91663 10.8007 2.91663ZM10.8007 18.935C6.03984 18.935 2.1665 15.0616 2.1665 10.3008C2.1665 5.53996 6.03984 1.66663 10.8007 1.66663C15.5615 1.66663 19.4348 5.53996 19.4348 10.3008C19.4348 15.0616 15.5615 18.935 10.8007 18.935Z" fill="#9CA3AF"/>
</g>
</svg>
