<svg width="21" height="20" viewBox="0 0 21 20" fill="none" xmlns="http://www.w3.org/2000/svg">
<path fill-rule="evenodd" clip-rule="evenodd" d="M2.16663 10.0001C2.16663 5.40008 5.89163 1.66675 10.5 1.66675C15.1 1.66675 18.8333 5.40008 18.8333 10.0001C18.8333 14.6084 15.1 18.3334 10.5 18.3334C5.89163 18.3334 2.16663 14.6084 2.16663 10.0001ZM12.3583 11.5251L13.7083 7.25841C13.8 6.96675 13.5333 6.69175 13.2416 6.78341L8.97496 8.11675C8.79996 8.17508 8.65829 8.30841 8.60829 8.48341L7.27496 12.7584C7.18329 13.0417 7.45829 13.3167 7.74163 13.2251L11.9916 11.8917C12.1666 11.8417 12.3083 11.7001 12.3583 11.5251Z" fill="#374151"/>
</svg>
