<svg width="21" height="20" viewBox="0 0 21 20" fill="none" xmlns="http://www.w3.org/2000/svg">
<path fill-rule="evenodd" clip-rule="evenodd" d="M11.833 6.80913C11.488 6.80913 11.208 6.52913 11.208 6.18413V4.16663C11.208 3.82163 11.488 3.54163 11.833 3.54163C12.178 3.54163 12.458 3.82163 12.458 4.16663V6.18413C12.458 6.52913 12.178 6.80913 11.833 6.80913Z" fill="#9CA3AF"/>
<path fill-rule="evenodd" clip-rule="evenodd" d="M11.833 17.7369C11.488 17.7369 11.208 17.4569 11.208 17.1119V15.426C11.208 15.0802 11.488 14.801 11.833 14.801C12.178 14.801 12.458 15.0802 12.458 15.426V17.1119C12.458 17.4569 12.178 17.7369 11.833 17.7369Z" fill="#9CA3AF"/>
<path fill-rule="evenodd" clip-rule="evenodd" d="M11.833 13.1877C11.488 13.1877 11.208 12.9077 11.208 12.5627V8.54517C11.208 8.20017 11.488 7.92017 11.833 7.92017C12.178 7.92017 12.458 8.20017 12.458 8.54517V12.5627C12.458 12.9077 12.178 13.1877 11.833 13.1877Z" fill="#9CA3AF"/>
<mask id="mask0_58_843" style="mask-type:luminance" maskUnits="userSpaceOnUse" x="1" y="3" width="19" height="15">
<path fill-rule="evenodd" clip-rule="evenodd" d="M1.33337 3.33337H19.25V17.9165H1.33337V3.33337Z" fill="white"/>
</mask>
<g mask="url(#mask0_58_843)">
<path fill-rule="evenodd" clip-rule="evenodd" d="M2.58337 12.9615V14.5773C2.58337 15.729 3.53587 16.6665 4.70671 16.6665H15.8767C17.0475 16.6665 18 15.729 18 14.5773V12.9615C16.9575 12.6873 16.1859 11.744 16.1859 10.6256C16.1859 9.50646 16.9567 8.56396 18 8.2898L17.9992 6.6723C17.9992 5.52063 17.0467 4.58313 15.8759 4.58313H4.70754C3.53671 4.58313 2.58421 5.52063 2.58421 6.6723L2.58337 8.35396C3.63921 8.61313 4.39754 9.51813 4.39754 10.6256C4.39754 11.744 3.62587 12.6873 2.58337 12.9615ZM15.8767 17.9165H4.70671C2.84671 17.9165 1.33337 16.4181 1.33337 14.5773V12.4173C1.33337 12.0723 1.61337 11.7923 1.95837 11.7923C2.61421 11.7923 3.14754 11.269 3.14754 10.6256C3.14754 10.0006 2.63587 9.52896 1.95837 9.52896C1.79254 9.52896 1.63337 9.46313 1.51671 9.34563C1.39921 9.22896 1.33337 9.06896 1.33337 8.90396L1.33421 6.6723C1.33421 4.83146 2.84754 3.33313 4.70754 3.33313H15.8759C17.7359 3.33313 19.2492 4.83146 19.2492 6.6723L19.25 8.83396C19.25 8.99896 19.1842 9.15896 19.0667 9.27563C18.95 9.39313 18.7909 9.45896 18.625 9.45896C17.9692 9.45896 17.4359 9.9823 17.4359 10.6256C17.4359 11.269 17.9692 11.7923 18.625 11.7923C18.97 11.7923 19.25 12.0723 19.25 12.4173V14.5773C19.25 16.4181 17.7367 17.9165 15.8767 17.9165Z" fill="#9CA3AF"/>
</g>
</svg>
