<svg width="20" height="20" viewBox="0 0 20 20" fill="none" xmlns="http://www.w3.org/2000/svg">
<path fill-rule="evenodd" clip-rule="evenodd" d="M18.156 8.78258C18.0432 8.89219 17.89 8.95483 17.7288 8.95483C17.1325 8.95483 16.6489 9.42459 16.6489 9.99613C16.6489 10.5716 17.1268 11.039 17.7176 11.0453C18.0504 11.0484 18.3333 11.2739 18.3333 11.5972V13.6054C18.3333 15.2958 16.9229 16.6667 15.1821 16.6667H12.5548C12.2832 16.6667 12.0631 16.453 12.0631 16.1891V14.498C12.0631 14.1692 11.7972 13.9108 11.4587 13.9108C11.1283 13.9108 10.8542 14.1692 10.8542 14.498V16.1891C10.8542 16.453 10.6342 16.6667 10.3634 16.6667H4.81782C3.08507 16.6667 1.66663 15.2966 1.66663 13.6054V11.5972C1.66663 11.2739 1.94951 11.0484 2.28236 11.0453C2.87391 11.039 3.35102 10.5716 3.35102 9.99613C3.35102 9.44024 2.88358 9.01746 2.27107 9.01746C2.10989 9.01746 1.95676 8.95483 1.84393 8.84522C1.7311 8.73561 1.66663 8.58685 1.66663 8.43026V6.40247C1.66663 4.71447 3.08829 3.33337 4.82588 3.33337H10.3634C10.6342 3.33337 10.8542 3.54711 10.8542 3.81096V5.81527C10.8542 6.13627 11.1283 6.40247 11.4587 6.40247C11.7972 6.40247 12.0631 6.13627 12.0631 5.81527V3.81096C12.0631 3.54711 12.2832 3.33337 12.5548 3.33337H15.1821C16.9229 3.33337 18.3333 4.7035 18.3333 6.39464V8.36763C18.3333 8.52421 18.2688 8.67297 18.156 8.78258ZM11.4587 12.3919C11.7972 12.3919 12.0631 12.1257 12.0631 11.8047V8.67297C12.0631 8.35197 11.7972 8.08577 11.4587 8.08577C11.1283 8.08577 10.8542 8.35197 10.8542 8.67297V11.8047C10.8542 12.1257 11.1283 12.3919 11.4587 12.3919Z" fill="#374151"/>
</svg>
