<svg width="16" height="16" viewBox="0 0 16 16" fill="none" xmlns="http://www.w3.org/2000/svg">
<path d="M2.66663 7.81713C2.66663 7.564 2.85473 7.3548 3.09878 7.3217L3.16663 7.31713L13.1666 7.31713C13.4428 7.31713 13.6666 7.54099 13.6666 7.81713C13.6666 8.07026 13.4785 8.27946 13.2345 8.31257L13.1666 8.31713H3.16663C2.89048 8.31713 2.66663 8.09327 2.66663 7.81713Z" fill="#374151"/>
<path d="M8.78063 4.15518C8.58495 3.96034 8.58427 3.64376 8.77911 3.44808C8.95624 3.27018 9.23398 3.25345 9.43003 3.39826L9.48621 3.44655L13.5195 7.46255C13.698 7.64021 13.7142 7.91895 13.5682 8.115L13.5196 8.17115L9.48624 12.1878C9.29058 12.3827 8.974 12.382 8.77914 12.1864C8.602 12.0085 8.58643 11.7307 8.73207 11.5352L8.7806 11.4792L12.458 7.81667L8.78063 4.15518Z" fill="#374151"/>
</svg>
