<svg width="16" height="17" viewBox="0 0 16 17" fill="none" xmlns="http://www.w3.org/2000/svg">
<path fill-rule="evenodd" clip-rule="evenodd" d="M10.9406 2.34575L10.9413 2.8455C12.7777 2.98943 13.9908 4.2408 13.9928 6.15984L14 11.777C14.0026 13.8693 12.6882 15.1567 10.5812 15.16L5.4346 15.1667C3.3408 15.1693 2.00988 13.8513 2.00725 11.753L2.00001 6.20182C1.99738 4.27012 3.16769 3.02208 5.00412 2.85349L5.00346 2.35374C5.0028 2.06056 5.22002 1.84 5.50963 1.84C5.79925 1.83933 6.01646 2.05922 6.01712 2.35241L6.01778 2.81884L9.9276 2.81351L9.92694 2.34708C9.92628 2.05389 10.1435 1.834 10.4331 1.83334C10.7161 1.83267 10.9399 2.05256 10.9406 2.34575ZM3.01432 6.40771L12.9798 6.39439V6.16117C12.9515 4.72855 12.2327 3.97693 10.9426 3.86499L10.9432 4.37806C10.9432 4.66459 10.7201 4.89181 10.4371 4.89181C10.1474 4.89247 9.92957 4.66592 9.92957 4.3794L9.92891 3.83967L6.01909 3.845L6.01975 4.38406C6.01975 4.67125 5.8032 4.8978 5.51358 4.8978C5.22396 4.89847 5.00609 4.67258 5.00609 4.38539L5.00543 3.87232C3.72191 4.00092 3.01169 4.75521 3.01367 6.20048L3.01432 6.40771ZM10.1599 9.4362V9.44353C10.1665 9.75004 10.4166 9.98259 10.7201 9.97593C11.0163 9.9686 11.2526 9.71472 11.246 9.40821C11.2322 9.11502 10.9946 8.87581 10.699 8.87648C10.3962 8.88314 10.1593 9.12968 10.1599 9.4362ZM10.7036 12.428C10.4009 12.4214 10.1567 12.1688 10.156 11.8623C10.1494 11.5558 10.3923 11.3019 10.6951 11.2946H10.7017C11.011 11.2946 11.2618 11.5471 11.2618 11.8603C11.2625 12.1735 11.0123 12.4274 10.7036 12.428ZM7.44808 9.44686C7.46125 9.75337 7.71203 9.99258 8.01481 9.97926C8.31101 9.96526 8.54731 9.71206 8.53414 9.40554C8.5269 9.10569 8.28336 8.87248 7.98716 8.87314C7.68438 8.88647 7.44743 9.14034 7.44808 9.44686ZM8.01744 12.398C7.71466 12.4114 7.46454 12.1722 7.45072 11.8656C7.45072 11.5591 7.68702 11.3059 7.9898 11.2919C8.286 11.2913 8.5302 11.5245 8.53678 11.8237C8.5506 12.1308 8.31364 12.3841 8.01744 12.398ZM4.73622 9.47018C4.74939 9.77669 5.00017 10.0166 5.30295 10.0026C5.59915 9.98925 5.83545 9.73538 5.82163 9.42887C5.81504 9.12902 5.5715 8.8958 5.27465 8.89647C4.97187 8.90979 4.73557 9.16367 4.73622 9.47018ZM5.30558 12.4014C5.0028 12.4154 4.75268 12.1755 4.73886 11.869C4.7382 11.5625 4.97516 11.3086 5.27794 11.2953C5.57414 11.2946 5.81833 11.5278 5.82492 11.8277C5.83874 12.1342 5.60244 12.3881 5.30558 12.4014Z" fill="#219653"/>
</svg>
