<svg width="20" height="20" viewBox="0 0 20 20" fill="none" xmlns="http://www.w3.org/2000/svg">
<path d="M8.33325 1.66666L7.49992 2.49999H4.16659C3.70659 2.49999 3.33325 2.87332 3.33325 3.33332C3.33325 3.79332 3.70659 4.16666 4.16659 4.16666H15.8333C16.2933 4.16666 16.6666 3.79332 16.6666 3.33332C16.6666 2.87332 16.2933 2.49999 15.8333 2.49999H12.4999L11.6666 1.66666H8.33325ZM4.16659 5.83332V16.6667C4.16659 17.5833 4.91659 18.3333 5.83325 18.3333H14.1666C15.0833 18.3333 15.8333 17.5833 15.8333 16.6667V5.83332H4.16659ZM7.84172 8.67837C8.05442 8.67837 8.2672 8.7588 8.42928 8.92089L9.99992 10.4915L11.5706 8.92089C11.8947 8.59672 12.4215 8.59672 12.7457 8.92089C13.0699 9.24505 13.0699 9.77185 12.7457 10.096L11.175 11.6667L12.7457 13.2373C13.0699 13.5615 13.0699 14.0883 12.7457 14.4124C12.4215 14.7366 11.8947 14.7366 11.5706 14.4124L9.99992 12.8418L8.42928 14.4124C8.10511 14.7366 7.57832 14.7366 7.25415 14.4124C6.92998 14.0883 6.92998 13.5615 7.25415 13.2373L8.82479 11.6667L7.25415 10.096C6.92998 9.77185 6.92998 9.24505 7.25415 8.92089C7.41623 8.7588 7.62901 8.67837 7.84172 8.67837Z" fill="#9CA3AF"/>
</svg>
