<svg width="15" height="15" viewBox="0 0 15 15" fill="none" xmlns="http://www.w3.org/2000/svg">
<path fill-rule="evenodd" clip-rule="evenodd" d="M10.0989 5.14553C10.0989 6.61408 8.92821 7.79163 7.46814 7.79163C6.00808 7.79163 4.83734 6.61408 4.83734 5.14553C4.83734 3.67642 6.00808 2.5 7.46814 2.5C8.92821 2.5 10.0989 3.67642 10.0989 5.14553ZM7.46814 12.5C5.32365 12.5 3.49256 12.16 3.49256 10.8001C3.49256 9.43963 5.3119 9.08726 7.46814 9.08726C9.61263 9.08726 11.4437 9.42724 11.4437 10.7877C11.4437 12.1476 9.62438 12.5 7.46814 12.5ZM11.2232 5.19326C11.2232 5.94189 10.9999 6.6393 10.6082 7.21907C10.5679 7.27873 10.6037 7.35922 10.6747 7.37161C10.7727 7.38849 10.874 7.39806 10.9769 7.40088C12.0039 7.4279 12.9256 6.76313 13.1802 5.76234C13.5574 4.27577 12.4499 2.94118 11.0396 2.94118C10.8863 2.94118 10.7397 2.95751 10.597 2.98678C10.5774 2.99128 10.5567 3.00029 10.5455 3.01774C10.532 3.03913 10.5421 3.06783 10.5555 3.08641C10.9792 3.68362 11.2232 4.41199 11.2232 5.19326ZM12.9239 8.44536C13.6139 8.58101 14.0678 8.85795 14.2558 9.2604C14.4147 9.59081 14.4147 9.97414 14.2558 10.304C13.9682 10.9282 13.0409 11.1286 12.6805 11.1804C12.606 11.1916 12.5461 11.1269 12.554 11.052C12.7381 9.32232 11.2735 8.50221 10.8947 8.31364C10.8785 8.3052 10.8751 8.29225 10.8768 8.28437C10.8779 8.27874 10.8846 8.26974 10.8969 8.26805C11.7168 8.25285 12.5982 8.36543 12.9239 8.44536ZM4.02319 7.40082C4.12616 7.39801 4.2269 7.389 4.32539 7.37155C4.39646 7.35917 4.43228 7.27868 4.39199 7.21901C4.00025 6.63925 3.77696 5.94184 3.77696 5.19321C3.77696 4.41193 4.02095 3.68357 4.44459 3.08635C4.45802 3.06778 4.46754 3.03907 4.45467 3.01768C4.44347 3.00079 4.42221 2.99122 4.40318 2.98672C4.25992 2.95745 4.11329 2.94113 3.95996 2.94113C2.5497 2.94113 1.44219 4.27572 1.81994 5.76228C2.07457 6.76308 2.99628 7.42784 4.02319 7.40082ZM4.12309 8.28403C4.12477 8.29248 4.12141 8.30486 4.10574 8.31387C3.72631 8.50243 2.26177 9.32255 2.44589 11.0517C2.45372 11.1271 2.3944 11.1913 2.31997 11.1806C1.95957 11.1288 1.03227 10.9284 0.74462 10.3042C0.585127 9.9738 0.585127 9.59104 0.74462 9.26063C0.932655 8.85817 1.38595 8.58123 2.07597 8.44502C2.40223 8.36565 3.28309 8.25308 4.1035 8.26827C4.11581 8.26996 4.12197 8.27897 4.12309 8.28403Z" fill="#2F80ED"/>
</svg>
