<svg width="16" height="17" viewBox="0 0 16 17" fill="none" xmlns="http://www.w3.org/2000/svg">
<path d="M11.9456 10.0467C11.7729 10.2141 11.6936 10.4561 11.7329 10.6934L12.3256 13.9734C12.3756 14.2514 12.2583 14.5327 12.0256 14.6934C11.7976 14.8601 11.4943 14.8801 11.2456 14.7467L8.29292 13.2067C8.19026 13.1521 8.07626 13.1227 7.95959 13.1194H7.77892C7.71626 13.1287 7.65493 13.1487 7.59893 13.1794L4.64559 14.7267C4.49959 14.8001 4.33426 14.8261 4.17226 14.8001C3.77759 14.7254 3.51426 14.3494 3.57893 13.9527L4.17226 10.6727C4.21159 10.4334 4.13226 10.1901 3.95959 10.0201L1.55226 7.68673C1.35093 7.4914 1.28093 7.19807 1.37293 6.9334C1.46226 6.6694 1.69026 6.47673 1.96559 6.4334L5.27892 5.95273C5.53093 5.92673 5.75226 5.7734 5.86559 5.54673L7.32559 2.5534C7.36026 2.48673 7.40493 2.4254 7.45893 2.3734L7.51892 2.32673C7.55026 2.29207 7.58626 2.2634 7.62626 2.24007L7.69893 2.2134L7.81226 2.16673H8.09293C8.34359 2.19273 8.56426 2.34273 8.67959 2.56673L10.1589 5.54673C10.2656 5.76473 10.4729 5.91607 10.7123 5.95273L14.0256 6.4334C14.3056 6.4734 14.5396 6.66673 14.6323 6.9334C14.7196 7.20073 14.6443 7.49407 14.4389 7.68673L11.9456 10.0467Z" fill="#F2994A"/>
</svg>
