<svg width="16" height="17" viewBox="0 0 16 17" fill="none" xmlns="http://www.w3.org/2000/svg">
<path d="M4.63676 1.99999C4.34821 1.99996 4.08366 1.99993 3.86845 2.02886C3.63146 2.06073 3.38098 2.13569 3.17497 2.34171C2.96895 2.54772 2.89399 2.79821 2.86212 3.03519C2.83319 3.2504 2.83322 3.51495 2.83325 3.8035L2.83326 14.5C2.83326 14.7761 3.05711 15 3.33326 15C3.6094 15 3.83326 14.7761 3.83326 14.5L3.83326 10.3333H11.4652C12.4049 10.3333 13.1666 9.5716 13.1666 8.63196C13.1666 8.0717 12.8908 7.54736 12.4291 7.22995L12.2416 7.10105C11.5862 6.6505 11.5862 5.68283 12.2416 5.23228L12.4291 5.10337C12.8908 4.78597 13.1666 4.26163 13.1666 3.70137C13.1666 2.76173 12.4049 2 11.4652 2L4.63676 1.99999Z" fill="#6B7280"/>
</svg>
