<svg width="20" height="20" viewBox="0 0 20 20" fill="none" xmlns="http://www.w3.org/2000/svg">
<path fill-rule="evenodd" clip-rule="evenodd" d="M2.91663 8.59812C2.91663 4.7649 6.11986 1.66666 9.9945 1.66666C13.8801 1.66666 17.0833 4.7649 17.0833 8.59812C17.0833 10.5297 16.3808 12.323 15.2245 13.843C13.949 15.5196 12.3768 16.9804 10.6071 18.127C10.2021 18.392 9.83652 18.412 9.392 18.127C7.61224 16.9804 6.04003 15.5196 4.77538 13.843C3.61828 12.323 2.91663 10.5297 2.91663 8.59812ZM7.66182 8.81395C7.66182 10.0981 8.70967 11.108 9.9945 11.108C11.2802 11.108 12.3381 10.0981 12.3381 8.81395C12.3381 7.53982 11.2802 6.48068 9.9945 6.48068C8.70967 6.48068 7.66182 7.53982 7.66182 8.81395Z" fill="#4B5563"/>
</svg>
