<svg width="41" height="40" viewBox="0 0 41 40" fill="none" xmlns="http://www.w3.org/2000/svg">
<path opacity="0.4" d="M24.5305 9.1499C23.7371 9.00333 23.0085 9.50965 22.8574 10.2841C22.7064 11.0586 23.2143 11.8147 23.9861 11.9663C26.3099 12.4193 28.1041 14.2181 28.5589 16.5498V16.5515C28.6884 17.2227 29.2793 17.7107 29.9598 17.7107C30.0511 17.7107 30.1424 17.7024 30.2354 17.6857C31.0072 17.5308 31.5151 16.7763 31.3641 16.0002C30.6852 12.5176 28.0046 9.82777 24.5305 9.1499" fill="white"/>
<path opacity="0.4" d="M24.4268 3.34654C24.055 3.29325 23.6816 3.40317 23.3844 3.63968C23.079 3.87951 22.8882 4.22594 22.8467 4.61401C22.7587 5.39847 23.3247 6.10798 24.1081 6.19625C29.5109 6.79917 33.7103 11.0079 34.3178 16.4276C34.3991 17.1537 35.0083 17.7017 35.7353 17.7017C35.7901 17.7017 35.8432 17.6984 35.898 17.6917C36.2781 17.6501 36.6167 17.4619 36.8557 17.1621C37.093 16.8623 37.2009 16.4892 37.1578 16.1078C36.4009 9.34576 31.1674 4.0977 24.4268 3.34654" fill="white"/>
<path fill-rule="evenodd" clip-rule="evenodd" d="M18.8862 21.6206C25.5346 28.2673 27.0429 20.5779 31.276 24.808C35.357 28.8879 37.7026 29.7053 32.532 34.8745C31.8843 35.395 27.7693 41.6571 13.3076 27.1994C-1.15588 12.74 5.10256 8.62074 5.6232 7.97325C10.8064 2.78974 11.6097 5.14897 15.6907 9.22888C19.9239 13.4608 12.2377 14.974 18.8862 21.6206Z" fill="white"/>
</svg>
