<svg width="20" height="20" viewBox="0 0 20 20" fill="none" xmlns="http://www.w3.org/2000/svg">
<path fill-rule="evenodd" clip-rule="evenodd" d="M9.77349 18.2614C9.86578 18.3096 9.96897 18.3341 10.0722 18.3333C10.1753 18.3325 10.2777 18.3072 10.3708 18.2581L13.3441 16.6687C14.1872 16.2193 14.8475 15.7167 15.3626 15.1316C16.4826 13.8568 17.0942 12.2299 17.0833 10.5522L17.048 5.01832C17.0447 4.38093 16.626 3.81218 16.0069 3.60544L10.4757 1.74964C10.1426 1.63687 9.77769 1.63932 9.4505 1.75536L3.94029 3.67735C3.3245 3.89226 2.91341 4.4651 2.91677 5.10331L2.952 10.6331C2.96291 12.3132 3.59548 13.9328 4.73393 15.1945C5.25408 15.7715 5.9202 16.2667 6.77258 16.7088L9.77349 18.2614ZM8.98639 11.7574C9.11055 11.8768 9.27163 11.9356 9.43271 11.934C9.59379 11.9331 9.75403 11.8727 9.87651 11.7517L13.1258 8.54842C13.3699 8.30735 13.3674 7.92001 13.1207 7.68222C12.8732 7.44442 12.4747 7.44606 12.2306 7.68712L9.42348 10.4541L8.27412 9.34925C8.02663 9.11145 7.62897 9.1139 7.384 9.35497C7.13986 9.59603 7.14238 9.98337 7.38987 10.2212L8.98639 11.7574Z" fill="#48847A"/>
</svg>
