<svg width="20" height="20" viewBox="0 0 20 20" fill="none" xmlns="http://www.w3.org/2000/svg">
<path d="M5.20825 1.66667C4.1745 1.66667 3.33325 2.50792 3.33325 3.54167V16.4583C3.33325 17.4921 4.1745 18.3333 5.20825 18.3333H14.7916C15.8253 18.3333 16.6666 17.4921 16.6666 16.4583V8.33333H11.8749C10.8412 8.33333 9.99992 7.49208 9.99992 6.45833V1.66667H5.20825ZM11.2499 2.03288V6.45833C11.2499 6.80292 11.5303 7.08333 11.8749 7.08333H16.3004L11.2499 2.03288ZM9.99992 9.16667C10.1598 9.16667 10.3197 9.22769 10.4418 9.34977L12.1085 11.0164C12.3526 11.2602 12.3526 11.6565 12.1085 11.9002C11.9868 12.0227 11.8266 12.0833 11.6666 12.0833C11.5066 12.0833 11.3468 12.0223 11.2247 11.9002L10.6249 11.3005V13.5417C10.6249 13.8871 10.3453 14.1667 9.99992 14.1667C9.6545 14.1667 9.37492 13.8871 9.37492 13.5417V11.3005L8.77515 11.9002C8.53098 12.1444 8.13552 12.1444 7.89136 11.9002C7.64719 11.6565 7.64761 11.2606 7.89136 11.0164L9.55802 9.34977C9.68011 9.22769 9.84002 9.16667 9.99992 9.16667ZM7.29158 15H12.7083C13.0537 15 13.3333 15.2796 13.3333 15.625C13.3333 15.9704 13.0537 16.25 12.7083 16.25H7.29158C6.94617 16.25 6.66658 15.9704 6.66658 15.625C6.66658 15.2796 6.94617 15 7.29158 15Z" fill="#9CA3AF"/>
</svg>
